<svg id="svg" version="1.1" xmlns="http://www.w3.org/2000/svg" xmlns:xlink="http://www.w3.org/1999/xlink" width="400" height="200" viewBox="0, 0, 400,200"><g id="svgg"><path id="path0" d="M1.100 0.092 C 2.049 0.376,3.374 0.715,6.200 1.397 C 8.015 1.835,9.815 2.285,10.200 2.397 C 10.585 2.509,12.385 2.959,14.200 3.397 C 16.015 3.835,17.815 4.285,18.200 4.397 C 18.585 4.509,20.385 4.959,22.200 5.397 C 24.015 5.835,25.815 6.285,26.200 6.397 C 26.585 6.509,28.385 6.959,30.200 7.397 C 32.015 7.835,33.815 8.285,34.200 8.397 C 34.585 8.509,36.385 8.959,38.200 9.397 C 40.015 9.835,41.815 10.285,42.200 10.397 C 42.585 10.509,44.385 10.959,46.200 11.397 C 48.015 11.835,49.815 12.285,50.200 12.397 C 50.585 12.509,52.385 12.959,54.200 13.397 C 56.015 13.835,57.815 14.285,58.200 14.397 C 58.585 14.509,60.385 14.959,62.200 15.397 C 64.015 15.835,65.815 16.285,66.200 16.397 C 66.585 16.509,68.385 16.959,70.200 17.397 C 72.015 17.835,73.815 18.285,74.200 18.397 C 74.585 18.509,76.385 18.959,78.200 19.397 C 80.015 19.835,81.815 20.285,82.200 20.397 C 82.585 20.509,84.385 20.959,86.200 21.397 C 88.015 21.835,89.815 22.285,90.200 22.397 C 90.585 22.509,92.385 22.959,94.200 23.397 C 96.015 23.835,97.815 24.285,98.200 24.397 C 98.585 24.509,100.385 24.959,102.200 25.397 C 104.015 25.835,105.815 26.285,106.200 26.397 C 106.585 26.509,108.385 26.959,110.200 27.397 C 112.015 27.835,113.815 28.285,114.200 28.397 C 114.585 28.509,116.385 28.959,118.200 29.397 C 120.015 29.835,121.815 30.285,122.200 30.397 C 122.585 30.509,124.385 30.959,126.200 31.397 C 128.015 31.835,129.815 32.285,130.200 32.397 C 130.585 32.509,132.385 32.959,134.200 33.397 C 136.015 33.835,137.815 34.285,138.200 34.397 C 138.585 34.509,140.385 34.959,142.200 35.397 C 144.015 35.835,145.815 36.285,146.200 36.397 C 146.585 36.509,148.385 36.959,150.200 37.397 C 152.015 37.835,153.815 38.285,154.200 38.397 C 154.585 38.509,156.385 38.959,158.200 39.397 C 160.015 39.835,161.815 40.285,162.200 40.397 C 162.585 40.509,164.385 40.959,166.200 41.397 C 168.015 41.835,169.815 42.285,170.200 42.397 C 170.585 42.509,172.385 42.959,174.200 43.397 C 176.015 43.835,177.815 44.285,178.200 44.397 C 178.585 44.509,180.385 44.959,182.200 45.397 C 184.015 45.835,185.815 46.285,186.200 46.397 C 186.585 46.509,188.385 46.959,190.200 47.397 C 192.015 47.835,193.815 48.285,194.200 48.397 C 194.585 48.509,196.385 48.959,198.200 49.397 C 200.015 49.835,201.815 50.285,202.200 50.397 C 202.585 50.509,204.385 50.959,206.200 51.397 C 208.015 51.835,209.815 52.285,210.200 52.397 C 210.585 52.509,212.385 52.959,214.200 53.397 C 216.015 53.835,217.815 54.285,218.200 54.397 C 218.585 54.509,220.385 54.959,222.200 55.397 C 224.015 55.835,225.815 56.285,226.200 56.397 C 226.585 56.509,228.385 56.959,230.200 57.397 C 232.015 57.835,233.815 58.285,234.200 58.397 C 234.585 58.509,236.385 58.959,238.200 59.397 C 240.015 59.835,241.815 60.285,242.200 60.397 C 242.585 60.509,244.385 60.959,246.200 61.397 C 248.015 61.835,249.815 62.285,250.200 62.397 C 250.585 62.509,252.385 62.959,254.200 63.397 C 256.015 63.835,257.815 64.285,258.200 64.397 C 258.585 64.509,260.385 64.959,262.200 65.397 C 264.015 65.835,265.815 66.285,266.200 66.397 C 266.585 66.509,268.385 66.959,270.200 67.397 C 272.015 67.835,273.815 68.285,274.200 68.397 C 274.585 68.509,276.385 68.959,278.200 69.397 C 280.015 69.835,281.815 70.285,282.200 70.397 C 282.585 70.509,284.385 70.959,286.200 71.397 C 288.015 71.835,289.815 72.285,290.200 72.397 C 290.585 72.509,292.385 72.959,294.200 73.397 C 296.015 73.835,297.815 74.285,298.200 74.397 C 298.585 74.509,300.385 74.959,302.200 75.397 C 304.015 75.835,305.815 76.285,306.200 76.397 C 306.585 76.509,308.385 76.959,310.200 77.397 C 312.015 77.835,313.815 78.285,314.200 78.397 C 314.585 78.509,316.385 78.959,318.200 79.397 C 320.015 79.835,321.815 80.285,322.200 80.397 C 322.585 80.509,324.385 80.959,326.200 81.397 C 328.015 81.835,329.815 82.285,330.200 82.397 C 330.585 82.509,332.385 82.959,334.200 83.397 C 336.015 83.835,337.815 84.285,338.200 84.397 C 338.585 84.509,340.385 84.959,342.200 85.397 C 344.015 85.835,345.815 86.285,346.200 86.397 C 346.585 86.509,348.385 86.959,350.200 87.397 C 352.015 87.835,353.815 88.285,354.200 88.397 C 354.585 88.509,356.385 88.959,358.200 89.397 C 360.015 89.835,361.815 90.285,362.200 90.397 C 362.585 90.509,364.385 90.959,366.200 91.397 C 368.015 91.835,369.815 92.285,370.200 92.397 C 370.585 92.509,372.385 92.959,374.200 93.397 C 376.015 93.835,377.815 94.285,378.200 94.397 C 378.585 94.509,380.385 94.959,382.200 95.397 C 384.015 95.835,385.815 96.286,386.200 96.399 C 386.828 96.583,388.904 97.100,396.700 99.012 C 398.020 99.335,399.303 99.647,399.550 99.704 L 400.000 99.808 400.000 49.904 L 400.000 0.000 200.450 0.016 C 90.697 0.024,0.990 0.059,1.100 0.092 " stroke="none" fill="#0bac24" fill-rule="evenodd"></path><path id="path1" d="M0.000 100.023 L 0.000 200.047 0.450 199.911 C 0.830 199.797,397.427 100.610,398.758 100.296 C 399.394 100.146,399.165 99.895,398.155 99.634 C 395.620 98.979,389.805 97.529,389.200 97.401 C 388.815 97.320,387.015 96.870,385.200 96.403 C 383.385 95.936,381.585 95.486,381.200 95.403 C 380.815 95.320,379.015 94.870,377.200 94.403 C 375.385 93.936,373.585 93.486,373.200 93.403 C 372.815 93.320,371.015 92.870,369.200 92.403 C 367.385 91.936,365.585 91.486,365.200 91.403 C 364.815 91.320,363.015 90.870,361.200 90.403 C 359.385 89.936,357.585 89.486,357.200 89.403 C 356.815 89.320,355.015 88.870,353.200 88.403 C 351.385 87.936,349.585 87.486,349.200 87.403 C 348.815 87.320,347.015 86.870,345.200 86.403 C 343.385 85.936,341.585 85.486,341.200 85.403 C 340.815 85.320,339.015 84.870,337.200 84.403 C 335.385 83.936,333.585 83.486,333.200 83.403 C 332.815 83.320,331.015 82.870,329.200 82.403 C 327.385 81.936,325.585 81.486,325.200 81.403 C 324.815 81.320,323.015 80.870,321.200 80.403 C 319.385 79.936,317.585 79.486,317.200 79.403 C 316.815 79.320,315.015 78.870,313.200 78.403 C 311.385 77.936,309.585 77.486,309.200 77.403 C 308.815 77.320,307.015 76.870,305.200 76.403 C 303.385 75.936,301.585 75.486,301.200 75.403 C 300.815 75.320,299.015 74.870,297.200 74.403 C 295.385 73.936,293.585 73.486,293.200 73.403 C 292.815 73.320,291.015 72.870,289.200 72.403 C 287.385 71.936,285.585 71.486,285.200 71.403 C 284.815 71.320,283.015 70.870,281.200 70.403 C 279.385 69.936,277.585 69.486,277.200 69.403 C 276.815 69.320,275.015 68.870,273.200 68.403 C 271.385 67.936,269.585 67.486,269.200 67.403 C 268.815 67.320,267.015 66.870,265.200 66.403 C 263.385 65.936,261.585 65.486,261.200 65.403 C 260.815 65.320,259.015 64.870,257.200 64.403 C 255.385 63.936,253.585 63.486,253.200 63.403 C 252.815 63.320,251.015 62.870,249.200 62.403 C 247.385 61.936,245.585 61.486,245.200 61.403 C 244.815 61.320,243.015 60.870,241.200 60.403 C 239.385 59.936,237.585 59.486,237.200 59.403 C 236.815 59.320,235.015 58.870,233.200 58.403 C 231.385 57.936,229.585 57.486,229.200 57.403 C 228.815 57.320,227.015 56.870,225.200 56.403 C 223.385 55.936,221.585 55.486,221.200 55.403 C 220.815 55.320,219.015 54.870,217.200 54.403 C 215.385 53.936,213.585 53.486,213.200 53.403 C 212.815 53.320,211.015 52.870,209.200 52.403 C 207.385 51.936,205.585 51.486,205.200 51.403 C 204.815 51.320,203.015 50.870,201.200 50.403 C 199.385 49.936,197.585 49.486,197.200 49.403 C 196.815 49.320,195.015 48.870,193.200 48.403 C 191.385 47.936,189.585 47.486,189.200 47.403 C 188.815 47.320,187.015 46.870,185.200 46.403 C 183.385 45.936,181.585 45.486,181.200 45.403 C 180.815 45.320,179.015 44.870,177.200 44.403 C 175.385 43.936,173.585 43.486,173.200 43.403 C 172.815 43.320,171.015 42.870,169.200 42.403 C 167.385 41.936,165.585 41.486,165.200 41.403 C 164.815 41.320,163.015 40.870,161.200 40.403 C 159.385 39.936,157.585 39.486,157.200 39.403 C 156.815 39.320,155.015 38.870,153.200 38.403 C 151.385 37.936,149.585 37.486,149.200 37.403 C 148.815 37.320,147.015 36.870,145.200 36.403 C 143.385 35.936,141.585 35.486,141.200 35.403 C 140.815 35.320,139.015 34.870,137.200 34.403 C 135.385 33.936,133.585 33.486,133.200 33.403 C 132.815 33.320,131.015 32.870,129.200 32.403 C 127.385 31.936,125.585 31.486,125.200 31.403 C 124.815 31.320,123.015 30.870,121.200 30.403 C 119.385 29.936,117.585 29.486,117.200 29.403 C 116.815 29.320,115.015 28.870,113.200 28.403 C 111.385 27.936,109.585 27.486,109.200 27.403 C 108.815 27.320,107.015 26.870,105.200 26.403 C 103.385 25.936,101.585 25.486,101.200 25.403 C 100.815 25.320,99.015 24.870,97.200 24.403 C 95.385 23.936,93.585 23.486,93.200 23.403 C 92.815 23.320,91.015 22.870,89.200 22.403 C 87.385 21.936,85.585 21.486,85.200 21.403 C 84.815 21.320,83.015 20.870,81.200 20.403 C 79.385 19.936,77.585 19.486,77.200 19.403 C 76.815 19.320,75.015 18.870,73.200 18.403 C 71.385 17.936,69.585 17.486,69.200 17.403 C 68.815 17.320,67.015 16.870,65.200 16.403 C 63.385 15.936,61.585 15.486,61.200 15.403 C 60.815 15.320,59.015 14.870,57.200 14.403 C 55.385 13.936,53.585 13.486,53.200 13.403 C 52.815 13.320,51.015 12.870,49.200 12.403 C 47.385 11.936,45.585 11.486,45.200 11.403 C 44.815 11.320,43.015 10.870,41.200 10.403 C 39.385 9.936,37.585 9.486,37.200 9.403 C 36.815 9.320,35.015 8.870,33.200 8.403 C 31.385 7.936,29.585 7.486,29.200 7.403 C 28.815 7.320,27.015 6.870,25.200 6.403 C 23.385 5.936,21.585 5.486,21.200 5.403 C 20.815 5.320,19.015 4.870,17.200 4.403 C 15.385 3.936,13.585 3.486,13.200 3.403 C 12.815 3.320,11.015 2.870,9.200 2.403 C 7.385 1.936,5.585 1.485,5.200 1.402 C 3.322 0.996,0.863 0.353,0.553 0.186 C 0.362 0.084,0.159 0.000,0.103 0.000 C 0.046 0.000,0.000 45.010,0.000 100.023 M91.097 50.796 C 91.353 51.209,90.715 51.864,89.532 52.402 C 87.990 53.103,87.000 54.153,87.000 55.087 C 87.000 55.602,87.341 55.450,88.346 54.486 C 89.979 52.922,91.909 52.112,94.188 52.036 C 96.813 51.949,97.075 52.144,96.163 53.507 C 95.185 54.971,93.549 55.726,90.266 56.228 C 87.129 56.708,86.394 57.032,88.000 57.227 C 90.285 57.504,91.288 57.428,92.281 56.900 C 94.221 55.868,94.321 56.499,92.515 58.369 C 90.151 60.816,87.916 61.743,84.918 61.519 C 79.000 61.076,77.579 61.188,76.374 62.192 L 75.900 62.587 76.700 62.594 C 77.140 62.597,78.265 62.735,79.200 62.900 C 80.135 63.065,81.463 63.200,82.150 63.200 C 83.655 63.200,83.651 63.164,82.387 65.100 C 80.654 67.755,78.456 69.580,76.500 69.991 C 76.170 70.060,75.896 70.203,75.890 70.308 C 75.865 70.803,74.504 73.095,73.445 74.424 C 70.960 77.545,68.501 78.896,64.866 79.137 L 63.032 79.258 62.533 80.179 C 62.258 80.686,61.969 81.447,61.890 81.872 L 61.747 82.643 62.345 82.512 C 62.673 82.440,63.710 82.349,64.650 82.310 C 66.780 82.221,67.553 81.877,69.028 80.360 C 70.552 78.793,70.739 79.021,70.104 81.680 C 68.968 86.436,66.430 89.602,60.085 94.176 L 59.147 94.853 59.269 96.155 C 59.423 97.805,59.375 97.781,60.635 96.845 C 61.221 96.410,62.364 95.671,63.176 95.203 C 65.493 93.867,67.000 92.249,67.000 91.096 C 67.000 90.396,67.358 91.059,67.621 92.244 C 68.806 97.586,67.226 104.623,63.783 109.342 C 62.583 110.986,62.682 112.268,64.111 113.611 L 64.600 114.070 64.600 113.425 C 64.600 112.499,65.087 111.680,66.522 110.193 C 68.076 108.582,68.738 107.196,69.043 104.918 C 69.312 102.907,69.352 102.879,69.969 104.255 C 72.857 110.697,74.269 119.525,73.311 125.144 C 73.153 126.070,74.333 127.632,75.943 128.627 C 76.832 129.176,76.896 129.059,76.352 127.881 C 75.931 126.968,75.903 126.667,75.950 123.512 C 76.005 119.774,75.802 118.506,74.787 116.250 C 74.116 114.757,74.245 114.692,76.058 115.614 C 79.837 117.534,82.894 121.142,86.272 127.668 C 89.595 134.089,93.185 137.480,98.056 138.797 C 99.338 139.143,99.291 139.281,99.369 134.934 C 99.471 129.304,98.081 120.291,96.692 117.577 C 95.736 115.710,89.681 109.463,89.025 109.668 C 88.846 109.724,88.025 110.023,87.200 110.332 C 82.397 112.130,78.472 110.597,76.265 106.059 C 75.165 103.797,75.204 103.597,76.569 104.516 C 79.153 106.256,80.864 106.625,81.985 105.682 C 82.878 104.930,82.769 104.685,81.419 104.420 C 77.803 103.708,75.571 101.281,75.271 97.732 C 75.146 96.250,75.386 95.610,75.698 96.594 C 76.190 98.144,77.546 98.538,80.842 98.089 C 82.151 97.911,83.411 98.424,84.386 99.531 C 85.353 100.630,85.400 100.622,85.398 99.350 C 85.396 98.237,84.691 96.700,83.823 95.919 C 82.825 95.020,84.168 95.201,86.480 96.276 C 90.142 97.979,91.465 100.406,91.379 105.268 C 91.321 108.527,91.902 109.857,94.067 111.426 C 95.442 112.421,95.593 112.285,95.261 110.350 C 94.141 103.834,95.543 96.734,99.079 91.010 C 99.585 90.190,99.932 89.459,99.850 89.385 C 98.079 87.800,94.442 85.186,94.109 85.260 C 89.018 86.386,87.103 86.044,84.447 83.532 C 83.230 82.381,82.460 81.204,83.175 81.586 C 83.616 81.823,85.397 81.871,86.384 81.673 C 87.279 81.494,87.111 81.001,85.972 80.456 C 84.053 79.539,83.105 77.898,82.867 75.082 C 82.722 73.370,82.896 73.222,83.674 74.396 C 84.421 75.526,85.458 76.000,87.183 76.000 C 88.755 76.000,89.275 76.175,90.681 77.179 L 91.663 77.880 91.555 76.690 C 91.495 76.036,91.176 74.802,90.844 73.949 C 90.100 72.033,90.189 71.969,91.790 73.265 C 95.055 75.908,96.586 79.640,95.744 82.903 C 95.595 83.482,97.384 85.255,100.052 87.172 C 101.035 87.879,102.917 84.579,103.629 80.900 C 104.175 78.079,103.722 69.527,102.879 66.750 C 102.787 66.446,102.495 66.399,100.637 66.396 C 96.833 66.388,95.195 65.129,94.864 61.958 C 94.724 60.618,94.738 60.607,95.559 61.391 C 96.459 62.251,98.298 63.163,98.134 62.668 C 98.067 62.465,97.741 61.535,97.410 60.600 C 96.648 58.447,96.599 56.957,97.258 55.980 C 97.840 55.116,98.000 55.126,98.319 56.047 C 98.809 57.464,101.560 60.706,101.945 60.321 C 102.030 60.236,102.100 59.094,102.100 57.783 C 102.100 55.127,102.097 55.131,103.396 56.017 C 106.274 57.981,106.932 62.303,104.725 64.746 L 104.012 65.535 104.596 66.927 C 105.955 70.160,106.579 76.981,105.839 80.500 C 105.574 81.762,105.732 81.927,106.898 81.601 C 109.565 80.854,110.319 79.742,110.437 76.381 C 110.580 72.345,111.610 70.693,114.229 70.300 C 115.231 70.150,115.689 70.431,115.023 70.788 C 114.810 70.902,114.486 71.424,114.304 71.948 C 114.122 72.471,113.788 73.279,113.562 73.743 C 112.801 75.307,114.025 75.892,115.103 74.479 C 115.838 73.515,116.676 73.201,118.544 73.193 C 119.514 73.188,120.288 73.078,120.600 72.900 C 121.528 72.369,121.652 72.726,121.021 74.116 C 120.254 75.803,119.059 76.571,116.935 76.740 C 115.293 76.871,115.000 77.031,115.000 77.800 C 115.000 79.045,117.249 79.341,119.080 78.337 C 120.602 77.502,120.900 77.633,120.273 78.860 C 118.519 82.288,115.391 82.923,111.680 80.604 C 111.304 80.369,111.147 80.426,110.180 81.148 C 108.890 82.112,107.686 82.737,106.359 83.131 C 105.273 83.453,105.278 83.445,104.620 85.900 C 104.358 86.874,103.375 89.144,102.108 91.700 C 99.447 97.067,98.850 98.800,99.665 98.800 C 100.261 98.800,104.713 93.983,104.884 93.154 C 105.308 91.089,105.527 90.337,106.020 89.237 C 107.317 86.347,109.299 85.220,111.984 85.848 C 113.359 86.170,113.396 86.356,112.238 87.117 C 111.371 87.686,110.002 89.468,110.244 89.711 C 110.302 89.769,110.670 89.627,111.062 89.396 C 112.043 88.817,114.050 88.813,115.175 89.388 C 116.189 89.905,117.247 89.906,118.380 89.392 C 119.504 88.882,119.573 88.977,118.985 90.233 C 118.037 92.256,115.335 94.184,113.000 94.502 C 110.929 94.785,110.841 94.907,112.206 95.603 C 113.582 96.305,115.522 96.049,117.050 94.964 C 117.863 94.386,117.767 94.904,116.789 96.368 C 114.607 99.637,111.960 100.344,108.282 98.642 C 105.792 97.489,105.452 97.516,103.381 99.024 C 101.290 100.547,99.943 101.196,98.867 101.198 L 98.034 101.200 97.889 102.748 C 97.546 106.412,98.059 111.292,99.198 115.200 C 99.631 116.685,100.079 118.272,100.194 118.727 C 100.550 120.134,100.787 120.174,102.494 119.110 C 106.531 116.594,106.847 116.106,106.673 112.658 C 106.443 108.091,107.211 105.985,109.925 103.736 C 110.527 103.237,112.312 102.617,113.583 102.466 L 114.667 102.337 113.664 103.542 C 111.698 105.904,110.588 110.112,112.483 108.018 C 113.198 107.229,114.759 106.764,117.219 106.607 C 119.400 106.467,119.655 106.407,120.881 105.732 C 121.607 105.334,122.200 105.029,122.200 105.055 C 122.200 105.081,122.109 105.417,121.998 105.801 C 121.886 106.186,121.701 107.085,121.586 107.800 C 121.332 109.377,120.645 110.514,118.997 112.087 C 117.570 113.447,117.573 113.439,118.650 113.275 C 119.736 113.109,120.063 112.934,121.133 111.948 C 122.224 110.943,122.289 111.007,121.668 112.478 C 119.093 118.579,114.696 120.550,109.183 118.076 L 108.039 117.563 106.670 118.934 C 105.916 119.689,104.490 120.853,103.500 121.522 C 102.510 122.191,101.712 122.864,101.727 123.019 C 101.742 123.174,101.899 124.110,102.076 125.100 C 102.507 127.507,102.873 133.831,102.722 136.238 C 102.573 138.603,102.573 138.603,104.570 137.579 C 108.273 135.681,110.701 132.902,113.563 127.289 C 116.575 121.381,120.042 117.373,123.743 115.522 C 125.358 114.714,125.695 114.813,125.032 115.901 C 123.967 117.647,123.697 119.094,123.748 122.783 C 123.796 126.238,123.647 127.391,122.999 128.601 C 122.597 129.353,122.904 129.243,124.340 128.119 C 126.486 126.441,126.459 126.512,126.217 123.040 C 125.762 116.537,127.127 109.214,129.740 104.137 L 130.274 103.100 130.438 104.000 C 131.129 107.800,131.423 108.492,133.074 110.200 C 134.600 111.779,135.000 112.400,135.000 113.193 C 135.000 114.218,135.886 113.600,136.490 112.154 C 136.946 111.063,136.888 110.794,135.918 109.488 C 132.144 104.404,130.650 97.070,132.222 91.335 L 132.450 90.500 132.739 91.477 C 133.089 92.659,134.606 94.253,136.094 95.001 C 136.641 95.275,137.746 95.971,138.550 96.546 L 140.013 97.592 140.206 97.083 C 140.313 96.803,140.400 96.143,140.400 95.616 L 140.400 94.659 138.950 93.700 C 133.925 90.377,130.505 86.089,129.618 82.000 C 129.308 80.570,129.231 79.473,129.419 79.175 C 129.515 79.024,129.595 78.997,129.597 79.115 C 129.614 80.299,132.769 82.222,134.826 82.303 C 135.695 82.338,136.756 82.425,137.186 82.498 L 137.966 82.629 137.626 81.565 C 136.905 79.306,136.872 79.278,134.735 79.128 C 130.095 78.802,126.285 75.929,124.067 71.084 C 123.713 70.311,123.459 70.000,123.180 70.000 C 121.733 70.000,118.985 67.730,117.198 65.059 C 116.030 63.313,116.052 63.200,117.562 63.200 C 118.188 63.200,119.465 63.065,120.400 62.900 C 121.335 62.735,122.443 62.600,122.862 62.600 C 123.780 62.600,123.688 62.360,122.536 61.753 C 121.606 61.263,118.472 61.152,114.992 61.487 C 111.894 61.785,109.797 60.993,107.350 58.602 C 105.270 56.570,105.274 55.791,107.358 56.900 C 108.346 57.426,109.321 57.502,111.583 57.230 C 113.218 57.034,112.543 56.697,109.700 56.292 C 106.058 55.774,104.163 54.870,103.228 53.208 L 102.774 52.400 103.300 52.200 C 105.520 51.356,109.128 52.433,111.429 54.627 C 112.472 55.622,112.755 55.643,112.520 54.707 C 112.311 53.877,111.382 52.991,110.069 52.371 C 107.893 51.342,107.913 50.609,110.118 50.603 C 114.463 50.592,119.142 53.897,121.208 58.436 C 121.739 59.604,123.000 59.635,123.000 58.480 C 123.000 56.970,121.925 55.618,119.240 53.751 C 117.975 52.872,117.400 52.302,117.400 51.928 C 117.400 51.171,121.403 51.751,123.581 52.823 C 128.508 55.248,131.692 60.315,131.318 65.139 C 131.215 66.475,131.244 66.621,131.721 67.189 C 133.377 69.156,133.783 65.185,132.313 61.400 C 131.200 58.532,131.211 58.751,132.193 59.097 C 136.121 60.483,138.304 62.823,139.329 66.744 C 140.714 72.041,140.709 75.106,139.312 77.217 C 138.675 78.181,138.587 79.600,139.165 79.600 C 140.627 79.600,142.013 73.114,141.186 70.138 C 140.829 68.852,141.076 68.866,142.436 70.208 C 146.967 74.681,148.180 79.335,146.450 85.608 C 145.541 88.903,144.616 90.639,142.873 92.325 C 141.390 93.759,140.982 94.600,141.770 94.600 C 143.220 94.600,145.705 91.197,147.612 86.600 C 148.337 84.853,148.431 84.809,148.849 86.030 C 150.599 91.141,150.495 96.846,148.582 100.635 C 147.048 103.675,142.511 109.064,140.349 110.415 C 137.534 112.174,137.599 113.230,140.446 112.015 C 143.249 110.819,146.027 108.282,148.392 104.760 L 149.640 102.900 149.525 105.003 C 149.144 111.939,147.163 116.043,141.872 120.858 C 137.412 124.916,134.512 126.354,129.200 127.138 C 126.434 127.546,128.750 128.306,132.100 128.090 C 135.183 127.891,139.042 126.912,142.275 125.510 L 143.050 125.174 142.916 125.737 C 142.843 126.047,142.373 127.110,141.873 128.100 C 136.604 138.518,125.514 142.687,106.650 141.339 C 105.413 141.251,104.406 141.251,104.414 141.339 C 104.422 141.428,105.907 142.711,107.714 144.192 C 111.526 147.316,111.397 147.017,109.588 148.524 C 107.823 149.995,108.258 150.124,105.187 147.218 C 102.243 144.433,102.318 144.442,102.132 146.845 C 101.978 148.851,102.126 148.758,100.158 148.075 C 98.285 147.425,98.415 147.695,98.658 144.950 C 98.832 142.980,99.071 142.869,95.100 146.602 C 93.230 148.360,91.635 149.776,91.557 149.749 C 91.165 149.615,88.624 147.270,88.659 147.075 C 88.682 146.952,90.140 145.658,91.900 144.200 C 95.602 141.135,95.629 141.100,94.176 141.270 C 75.478 143.454,61.746 138.039,57.045 126.628 C 56.516 125.342,56.611 125.092,57.461 125.532 C 60.575 127.144,66.644 128.372,70.060 128.080 C 71.960 127.918,72.196 127.413,70.498 127.146 C 64.488 126.199,61.500 124.597,56.385 119.579 C 52.256 115.528,50.000 110.094,50.000 104.201 C 50.000 102.863,50.117 102.925,51.400 104.951 C 52.711 107.022,55.808 110.212,57.429 111.162 C 58.662 111.884,60.936 112.731,61.128 112.539 C 61.472 112.195,60.923 111.438,59.863 110.797 C 56.802 108.946,52.155 103.346,50.694 99.747 C 49.096 95.813,49.079 91.940,50.634 86.644 C 51.169 84.822,51.235 84.851,52.378 87.410 C 54.321 91.762,56.473 94.600,57.830 94.600 C 58.626 94.600,58.217 93.744,56.739 92.314 C 53.534 89.212,51.623 82.232,52.711 77.600 C 53.319 75.012,55.724 71.244,57.833 69.574 L 58.663 68.917 58.534 69.508 C 58.259 70.779,58.162 73.934,58.368 74.900 C 58.954 77.649,59.286 78.740,59.660 79.150 C 60.575 80.155,61.366 79.244,60.693 77.959 C 59.725 76.112,59.548 75.644,59.391 74.537 C 59.049 72.120,59.937 66.894,61.151 64.170 C 61.994 62.281,64.507 60.205,67.183 59.188 C 68.380 58.733,68.367 58.687,67.586 60.600 C 65.838 64.884,66.016 69.167,67.863 67.239 C 68.382 66.697,68.400 66.602,68.400 64.375 C 68.400 60.419,69.097 58.834,72.171 55.799 C 75.312 52.699,78.284 51.339,81.142 51.697 C 82.743 51.897,82.584 52.226,80.000 54.046 C 77.688 55.676,76.600 57.127,76.600 58.582 C 76.600 59.826,77.829 59.512,78.593 58.072 C 80.507 54.465,83.749 51.688,86.955 50.911 C 88.296 50.586,90.923 50.513,91.097 50.796 M68.850 68.244 C 68.341 68.490,68.242 69.000,68.704 69.000 C 68.872 69.000,69.815 69.315,70.800 69.700 C 72.206 70.249,72.862 70.397,73.846 70.384 C 75.179 70.367,75.181 70.369,72.959 69.719 C 72.332 69.535,71.355 69.074,70.789 68.693 C 69.681 67.947,69.536 67.913,68.850 68.244 M128.687 68.765 C 127.564 69.456,127.125 69.632,125.200 70.165 C 124.545 70.347,124.581 70.360,125.754 70.380 C 126.746 70.396,127.384 70.253,128.800 69.700 C 129.785 69.315,130.773 69.000,130.996 69.000 C 131.583 69.000,131.491 68.657,130.810 68.305 C 130.044 67.909,130.098 67.897,128.687 68.765 " stroke="none" fill="#eb0433" fill-rule="evenodd"></path><path id="path2" d="M86.955 50.911 C 83.749 51.688,80.507 54.465,78.593 58.072 C 77.829 59.512,76.600 59.826,76.600 58.582 C 76.600 57.127,77.688 55.676,80.000 54.046 C 82.584 52.226,82.743 51.897,81.142 51.697 C 78.284 51.339,75.312 52.699,72.171 55.799 C 69.097 58.834,68.400 60.419,68.400 64.375 C 68.400 66.602,68.382 66.697,67.863 67.239 C 66.016 69.167,65.838 64.884,67.586 60.600 C 68.367 58.687,68.380 58.733,67.183 59.188 C 64.507 60.205,61.994 62.281,61.151 64.170 C 59.937 66.894,59.049 72.120,59.391 74.537 C 59.548 75.644,59.725 76.112,60.693 77.959 C 61.366 79.244,60.575 80.155,59.660 79.150 C 59.286 78.740,58.954 77.649,58.368 74.900 C 58.162 73.934,58.259 70.779,58.534 69.508 L 58.663 68.917 57.833 69.574 C 55.724 71.244,53.319 75.012,52.711 77.600 C 51.623 82.232,53.534 89.212,56.739 92.314 C 58.217 93.744,58.626 94.600,57.830 94.600 C 56.473 94.600,54.321 91.762,52.378 87.410 C 51.235 84.851,51.169 84.822,50.634 86.644 C 49.079 91.940,49.096 95.813,50.694 99.747 C 52.155 103.346,56.802 108.946,59.863 110.797 C 60.923 111.438,61.472 112.195,61.128 112.539 C 60.936 112.731,58.662 111.884,57.429 111.162 C 55.808 110.212,52.711 107.022,51.400 104.951 C 50.117 102.925,50.000 102.863,50.000 104.201 C 50.000 110.094,52.256 115.528,56.385 119.579 C 61.500 124.597,64.488 126.199,70.498 127.146 C 72.196 127.413,71.960 127.918,70.060 128.080 C 66.644 128.372,60.575 127.144,57.461 125.532 C 56.611 125.092,56.516 125.342,57.045 126.628 C 61.746 138.039,75.478 143.454,94.176 141.270 C 95.629 141.100,95.602 141.135,91.900 144.200 C 90.140 145.658,88.682 146.952,88.659 147.075 C 88.624 147.270,91.165 149.615,91.557 149.749 C 91.635 149.776,93.230 148.360,95.100 146.602 C 99.071 142.869,98.832 142.980,98.658 144.950 C 98.415 147.695,98.285 147.425,100.158 148.075 C 102.126 148.758,101.978 148.851,102.132 146.845 C 102.318 144.442,102.243 144.433,105.187 147.218 C 108.258 150.124,107.823 149.995,109.588 148.524 C 111.397 147.017,111.526 147.316,107.714 144.192 C 105.907 142.711,104.422 141.428,104.414 141.339 C 104.406 141.251,105.413 141.251,106.650 141.339 C 125.514 142.687,136.604 138.518,141.873 128.100 C 142.373 127.110,142.843 126.047,142.916 125.737 L 143.050 125.174 142.275 125.510 C 137.064 127.771,128.100 129.092,128.100 127.600 C 128.100 127.389,128.428 127.252,129.200 127.138 C 134.512 126.354,137.412 124.916,141.872 120.858 C 147.163 116.043,149.144 111.939,149.525 105.003 L 149.640 102.900 148.392 104.760 C 146.027 108.282,143.249 110.819,140.446 112.015 C 137.599 113.230,137.534 112.174,140.349 110.415 C 142.511 109.064,147.048 103.675,148.582 100.635 C 150.495 96.846,150.599 91.141,148.849 86.030 C 148.431 84.809,148.337 84.853,147.612 86.600 C 145.705 91.197,143.220 94.600,141.770 94.600 C 140.982 94.600,141.390 93.759,142.873 92.325 C 144.616 90.639,145.541 88.903,146.450 85.608 C 148.180 79.335,146.967 74.681,142.436 70.208 C 141.076 68.866,140.829 68.852,141.186 70.138 C 142.013 73.114,140.627 79.600,139.165 79.600 C 138.587 79.600,138.675 78.181,139.312 77.217 C 140.709 75.106,140.714 72.041,139.329 66.744 C 138.304 62.823,136.121 60.483,132.193 59.097 C 131.211 58.751,131.200 58.532,132.313 61.400 C 133.783 65.185,133.377 69.156,131.721 67.189 C 131.244 66.621,131.215 66.475,131.318 65.139 C 131.692 60.315,128.508 55.248,123.581 52.823 C 121.403 51.751,117.400 51.171,117.400 51.928 C 117.400 52.302,117.975 52.872,119.240 53.751 C 121.925 55.618,123.000 56.970,123.000 58.480 C 123.000 59.635,121.739 59.604,121.208 58.436 C 119.142 53.897,114.463 50.592,110.118 50.603 C 107.913 50.609,107.893 51.342,110.069 52.371 C 111.382 52.991,112.311 53.877,112.520 54.707 C 112.755 55.643,112.472 55.622,111.429 54.627 C 109.128 52.433,105.520 51.356,103.300 52.200 L 102.774 52.400 103.228 53.208 C 104.163 54.870,106.058 55.774,109.700 56.292 C 112.543 56.697,113.218 57.034,111.583 57.230 C 109.321 57.502,108.346 57.426,107.358 56.900 C 105.274 55.791,105.270 56.570,107.350 58.602 C 109.797 60.993,111.894 61.785,114.992 61.487 C 118.472 61.152,121.606 61.263,122.536 61.753 C 123.688 62.360,123.780 62.600,122.862 62.600 C 122.443 62.600,121.335 62.735,120.400 62.900 C 119.465 63.065,118.188 63.200,117.562 63.200 C 116.052 63.200,116.030 63.313,117.198 65.059 C 118.985 67.730,121.733 70.000,123.180 70.000 C 123.459 70.000,123.713 70.311,124.067 71.084 C 126.285 75.929,130.095 78.802,134.735 79.128 C 136.872 79.278,136.905 79.306,137.626 81.565 L 137.966 82.629 137.186 82.498 C 136.756 82.425,135.695 82.338,134.826 82.303 C 132.769 82.222,129.614 80.299,129.597 79.115 C 129.595 78.997,129.515 79.024,129.419 79.175 C 129.231 79.473,129.308 80.570,129.618 82.000 C 130.505 86.089,133.925 90.377,138.950 93.700 L 140.400 94.659 140.400 95.616 C 140.400 96.143,140.313 96.803,140.206 97.083 L 140.013 97.592 138.550 96.546 C 137.746 95.971,136.641 95.275,136.094 95.001 C 134.606 94.253,133.089 92.659,132.739 91.477 L 132.450 90.500 132.222 91.335 C 130.650 97.070,132.144 104.404,135.918 109.488 C 136.888 110.794,136.946 111.063,136.490 112.154 C 135.886 113.600,135.000 114.218,135.000 113.193 C 135.000 112.400,134.600 111.779,133.074 110.200 C 131.423 108.492,131.129 107.800,130.438 104.000 L 130.274 103.100 129.740 104.137 C 127.127 109.214,125.762 116.537,126.217 123.040 C 126.459 126.512,126.486 126.441,124.340 128.119 C 122.904 129.243,122.597 129.353,122.999 128.601 C 123.647 127.391,123.796 126.238,123.748 122.783 C 123.697 119.094,123.967 117.647,125.032 115.901 C 125.695 114.813,125.358 114.714,123.743 115.522 C 120.042 117.373,116.575 121.381,113.563 127.289 C 110.701 132.902,108.273 135.681,104.570 137.579 C 102.573 138.603,102.573 138.603,102.722 136.238 C 102.873 133.831,102.507 127.507,102.076 125.100 C 101.899 124.110,101.742 123.174,101.727 123.019 C 101.712 122.864,102.510 122.191,103.500 121.522 C 104.490 120.853,105.916 119.689,106.670 118.934 L 108.039 117.563 109.183 118.076 C 114.696 120.550,119.093 118.579,121.668 112.478 C 122.289 111.007,122.224 110.943,121.133 111.948 C 120.063 112.934,119.736 113.109,118.650 113.275 C 117.573 113.439,117.570 113.447,118.997 112.087 C 120.645 110.514,121.332 109.377,121.586 107.800 C 121.701 107.085,121.886 106.186,121.998 105.801 C 122.109 105.417,122.200 105.081,122.200 105.055 C 122.200 105.029,121.607 105.334,120.881 105.732 C 119.655 106.407,119.400 106.467,117.219 106.607 C 114.759 106.764,113.198 107.229,112.483 108.018 C 110.588 110.112,111.698 105.904,113.664 103.542 L 114.667 102.337 113.583 102.466 C 112.312 102.617,110.527 103.237,109.925 103.736 C 107.211 105.985,106.443 108.091,106.673 112.658 C 106.847 116.106,106.531 116.594,102.494 119.110 C 100.787 120.174,100.550 120.134,100.194 118.727 C 100.079 118.272,99.631 116.685,99.198 115.200 C 98.059 111.292,97.546 106.412,97.889 102.748 L 98.034 101.200 98.867 101.198 C 99.943 101.196,101.290 100.547,103.381 99.024 C 105.452 97.516,105.792 97.489,108.282 98.642 C 111.960 100.344,114.607 99.637,116.789 96.368 C 117.767 94.904,117.863 94.386,117.050 94.964 C 115.522 96.049,113.582 96.305,112.206 95.603 C 110.841 94.907,110.929 94.785,113.000 94.502 C 115.335 94.184,118.037 92.256,118.985 90.233 C 119.573 88.977,119.504 88.882,118.380 89.392 C 117.247 89.906,116.189 89.905,115.175 89.388 C 114.050 88.813,112.043 88.817,111.062 89.396 C 110.670 89.627,110.302 89.769,110.244 89.711 C 110.002 89.468,111.371 87.686,112.238 87.117 C 113.396 86.356,113.359 86.170,111.984 85.848 C 109.299 85.220,107.317 86.347,106.020 89.237 C 105.527 90.337,105.308 91.089,104.884 93.154 C 104.713 93.983,100.261 98.800,99.665 98.800 C 98.850 98.800,99.447 97.067,102.108 91.700 C 103.375 89.144,104.358 86.874,104.620 85.900 C 105.278 83.445,105.273 83.453,106.359 83.131 C 107.686 82.737,108.890 82.112,110.180 81.148 C 111.147 80.426,111.304 80.369,111.680 80.604 C 115.391 82.923,118.519 82.288,120.273 78.860 C 120.900 77.633,120.602 77.502,119.080 78.337 C 117.249 79.341,115.000 79.045,115.000 77.800 C 115.000 77.031,115.293 76.871,116.935 76.740 C 119.059 76.571,120.254 75.803,121.021 74.116 C 121.652 72.726,121.528 72.369,120.600 72.900 C 120.288 73.078,119.514 73.188,118.544 73.193 C 116.676 73.201,115.838 73.515,115.103 74.479 C 114.025 75.892,112.801 75.307,113.562 73.743 C 113.788 73.279,114.122 72.471,114.304 71.948 C 114.486 71.424,114.810 70.902,115.023 70.788 C 115.689 70.431,115.231 70.150,114.229 70.300 C 111.610 70.693,110.580 72.345,110.437 76.381 C 110.319 79.742,109.565 80.854,106.898 81.601 C 105.732 81.927,105.574 81.762,105.839 80.500 C 106.579 76.981,105.955 70.160,104.596 66.927 L 104.012 65.535 104.725 64.746 C 106.932 62.303,106.274 57.981,103.396 56.017 C 102.097 55.131,102.100 55.127,102.100 57.783 C 102.100 59.094,102.030 60.236,101.945 60.321 C 101.560 60.706,98.809 57.464,98.319 56.047 C 98.000 55.126,97.840 55.116,97.258 55.980 C 96.599 56.957,96.648 58.447,97.410 60.600 C 97.741 61.535,98.067 62.465,98.134 62.668 C 98.298 63.163,96.459 62.251,95.559 61.391 C 94.738 60.607,94.724 60.618,94.864 61.958 C 95.195 65.129,96.833 66.388,100.637 66.396 C 102.495 66.399,102.787 66.446,102.879 66.750 C 103.722 69.527,104.175 78.079,103.629 80.900 C 102.917 84.579,101.035 87.879,100.052 87.172 C 97.384 85.255,95.595 83.482,95.744 82.903 C 96.586 79.640,95.055 75.908,91.790 73.265 C 90.189 71.969,90.100 72.033,90.844 73.949 C 91.176 74.802,91.495 76.036,91.555 76.690 L 91.663 77.880 90.681 77.179 C 89.275 76.175,88.755 76.000,87.183 76.000 C 85.458 76.000,84.421 75.526,83.674 74.396 C 82.896 73.222,82.722 73.370,82.867 75.082 C 83.105 77.898,84.053 79.539,85.972 80.456 C 87.111 81.001,87.279 81.494,86.384 81.673 C 85.397 81.871,83.616 81.823,83.175 81.586 C 82.460 81.204,83.230 82.381,84.447 83.532 C 87.103 86.044,89.018 86.386,94.109 85.260 C 94.442 85.186,98.079 87.800,99.850 89.385 C 99.932 89.459,99.585 90.190,99.079 91.010 C 95.543 96.734,94.141 103.834,95.261 110.350 C 95.593 112.285,95.442 112.421,94.067 111.426 C 91.902 109.857,91.321 108.527,91.379 105.268 C 91.465 100.406,90.142 97.979,86.480 96.276 C 84.168 95.201,82.825 95.020,83.823 95.919 C 84.691 96.700,85.396 98.237,85.398 99.350 C 85.400 100.622,85.353 100.630,84.386 99.531 C 83.411 98.424,82.151 97.911,80.842 98.089 C 77.546 98.538,76.190 98.144,75.698 96.594 C 75.386 95.610,75.146 96.250,75.271 97.732 C 75.571 101.281,77.803 103.708,81.419 104.420 C 82.769 104.685,82.878 104.930,81.985 105.682 C 80.864 106.625,79.153 106.256,76.569 104.516 C 75.204 103.597,75.165 103.797,76.265 106.059 C 78.472 110.597,82.397 112.130,87.200 110.332 C 88.025 110.023,88.846 109.724,89.025 109.668 C 89.681 109.463,95.736 115.710,96.692 117.577 C 98.081 120.291,99.471 129.304,99.369 134.934 C 99.291 139.281,99.338 139.143,98.056 138.797 C 93.185 137.480,89.595 134.089,86.272 127.668 C 82.894 121.142,79.837 117.534,76.058 115.614 C 74.245 114.692,74.116 114.757,74.787 116.250 C 75.802 118.506,76.005 119.774,75.950 123.512 C 75.903 126.667,75.931 126.968,76.352 127.881 C 76.896 129.059,76.832 129.176,75.943 128.627 C 74.333 127.632,73.153 126.070,73.311 125.144 C 74.269 119.525,72.857 110.697,69.969 104.255 C 69.352 102.879,69.312 102.907,69.043 104.918 C 68.738 107.196,68.076 108.582,66.522 110.193 C 65.087 111.680,64.600 112.499,64.600 113.425 L 64.600 114.070 64.111 113.611 C 62.682 112.268,62.583 110.986,63.783 109.342 C 67.226 104.623,68.806 97.586,67.621 92.244 C 67.358 91.059,67.000 90.396,67.000 91.096 C 67.000 92.249,65.493 93.867,63.176 95.203 C 62.364 95.671,61.221 96.410,60.635 96.845 C 59.375 97.781,59.423 97.805,59.269 96.155 L 59.147 94.853 60.085 94.176 C 66.430 89.602,68.968 86.436,70.104 81.680 C 70.739 79.021,70.552 78.793,69.028 80.360 C 67.553 81.877,66.780 82.221,64.650 82.310 C 63.710 82.349,62.673 82.440,62.345 82.512 L 61.747 82.643 61.890 81.872 C 61.969 81.447,62.258 80.686,62.533 80.179 L 63.032 79.258 64.866 79.137 C 68.501 78.896,70.960 77.545,73.445 74.424 C 74.504 73.095,75.865 70.803,75.890 70.308 C 75.896 70.203,76.170 70.060,76.500 69.991 C 78.456 69.580,80.654 67.755,82.387 65.100 C 83.651 63.164,83.655 63.200,82.150 63.200 C 81.463 63.200,80.135 63.065,79.200 62.900 C 78.265 62.735,77.140 62.597,76.700 62.594 L 75.900 62.587 76.374 62.192 C 77.579 61.188,79.000 61.076,84.918 61.519 C 87.916 61.743,90.151 60.816,92.515 58.369 C 94.321 56.499,94.221 55.868,92.281 56.900 C 91.288 57.428,90.285 57.504,88.000 57.227 C 86.394 57.032,87.129 56.708,90.266 56.228 C 93.549 55.726,95.185 54.971,96.163 53.507 C 97.969 50.805,91.319 51.638,88.346 54.486 C 87.341 55.450,87.000 55.602,87.000 55.087 C 87.000 54.153,87.990 53.103,89.532 52.402 C 92.528 51.039,90.726 49.997,86.955 50.911 M70.789 68.693 C 71.355 69.074,72.332 69.535,72.959 69.719 C 75.181 70.369,75.179 70.367,73.846 70.384 C 72.862 70.397,72.206 70.249,70.800 69.700 C 69.815 69.315,68.872 69.000,68.704 69.000 C 68.242 69.000,68.341 68.490,68.850 68.244 C 69.536 67.913,69.681 67.947,70.789 68.693 M130.810 68.305 C 131.491 68.657,131.583 69.000,130.996 69.000 C 130.773 69.000,129.785 69.315,128.800 69.700 C 127.384 70.253,126.746 70.396,125.754 70.380 C 124.581 70.360,124.545 70.347,125.200 70.165 C 127.125 69.632,127.564 69.456,128.687 68.765 C 130.098 67.897,130.044 67.909,130.810 68.305 " stroke="none" fill="#fbc724" fill-rule="evenodd"></path><path id="path3" d="M200.300 149.998 L 0.700 199.900 200.283 199.950 C 310.054 199.978,399.897 199.970,399.934 199.933 C 399.971 199.896,399.978 177.417,399.950 149.981 L 399.900 100.095 200.300 149.998 " stroke="none" fill="#3c8bdc" fill-rule="evenodd"></path><path id="path4" d="M0.447 0.107 C 0.572 0.238,3.753 1.097,5.400 1.446 C 5.675 1.504,7.385 1.935,9.200 2.402 C 11.015 2.870,12.815 3.320,13.200 3.403 C 13.585 3.486,15.385 3.936,17.200 4.403 C 19.015 4.870,20.815 5.320,21.200 5.403 C 21.585 5.486,23.385 5.936,25.200 6.403 C 27.015 6.870,28.815 7.320,29.200 7.403 C 29.585 7.486,31.385 7.936,33.200 8.403 C 35.015 8.870,36.815 9.320,37.200 9.403 C 37.585 9.486,39.385 9.936,41.200 10.403 C 43.015 10.870,44.815 11.320,45.200 11.403 C 45.585 11.486,47.385 11.936,49.200 12.403 C 51.015 12.870,52.815 13.320,53.200 13.403 C 53.585 13.486,55.385 13.936,57.200 14.403 C 59.015 14.870,60.815 15.320,61.200 15.403 C 61.585 15.486,63.385 15.936,65.200 16.403 C 67.015 16.870,68.815 17.320,69.200 17.403 C 69.585 17.486,71.385 17.936,73.200 18.403 C 75.015 18.870,76.815 19.320,77.200 19.403 C 77.585 19.486,79.385 19.936,81.200 20.403 C 83.015 20.870,84.815 21.320,85.200 21.403 C 85.585 21.486,87.385 21.936,89.200 22.403 C 91.015 22.870,92.815 23.320,93.200 23.403 C 93.585 23.486,95.385 23.936,97.200 24.403 C 99.015 24.870,100.815 25.320,101.200 25.403 C 101.585 25.486,103.385 25.936,105.200 26.403 C 107.015 26.870,108.815 27.320,109.200 27.403 C 109.585 27.486,111.385 27.936,113.200 28.403 C 115.015 28.870,116.815 29.320,117.200 29.403 C 117.585 29.486,119.385 29.936,121.200 30.403 C 123.015 30.870,124.815 31.320,125.200 31.403 C 125.585 31.486,127.385 31.936,129.200 32.403 C 131.015 32.870,132.815 33.320,133.200 33.403 C 133.585 33.486,135.385 33.936,137.200 34.403 C 139.015 34.870,140.815 35.320,141.200 35.403 C 141.585 35.486,143.385 35.936,145.200 36.403 C 147.015 36.870,148.815 37.320,149.200 37.403 C 149.585 37.486,151.385 37.936,153.200 38.403 C 155.015 38.870,156.815 39.320,157.200 39.403 C 157.585 39.486,159.385 39.936,161.200 40.403 C 163.015 40.870,164.815 41.320,165.200 41.403 C 165.585 41.486,167.385 41.936,169.200 42.403 C 171.015 42.870,172.815 43.320,173.200 43.403 C 173.585 43.486,175.385 43.936,177.200 44.403 C 179.015 44.870,180.815 45.320,181.200 45.403 C 181.585 45.486,183.385 45.936,185.200 46.403 C 187.015 46.870,188.815 47.320,189.200 47.403 C 189.585 47.486,191.385 47.936,193.200 48.403 C 195.015 48.870,196.815 49.320,197.200 49.403 C 197.585 49.486,199.385 49.936,201.200 50.403 C 203.015 50.870,204.815 51.320,205.200 51.403 C 205.585 51.486,207.385 51.936,209.200 52.403 C 211.015 52.870,212.815 53.320,213.200 53.403 C 213.585 53.486,215.385 53.936,217.200 54.403 C 219.015 54.870,220.815 55.320,221.200 55.403 C 221.585 55.486,223.385 55.936,225.200 56.403 C 227.015 56.870,228.815 57.320,229.200 57.403 C 229.585 57.486,231.385 57.936,233.200 58.403 C 235.015 58.870,236.815 59.320,237.200 59.403 C 237.585 59.486,239.385 59.936,241.200 60.403 C 243.015 60.870,244.815 61.320,245.200 61.403 C 245.585 61.486,247.385 61.936,249.200 62.403 C 251.015 62.870,252.815 63.320,253.200 63.403 C 253.585 63.486,255.385 63.936,257.200 64.403 C 259.015 64.870,260.815 65.320,261.200 65.403 C 261.585 65.486,263.385 65.936,265.200 66.403 C 267.015 66.870,268.815 67.320,269.200 67.403 C 269.585 67.486,271.385 67.936,273.200 68.403 C 275.015 68.870,276.815 69.320,277.200 69.403 C 277.585 69.486,279.385 69.936,281.200 70.403 C 283.015 70.870,284.815 71.320,285.200 71.403 C 285.585 71.486,287.385 71.936,289.200 72.403 C 291.015 72.870,292.815 73.320,293.200 73.403 C 293.585 73.486,295.385 73.936,297.200 74.403 C 299.015 74.870,300.815 75.320,301.200 75.403 C 301.585 75.486,303.385 75.936,305.200 76.403 C 307.015 76.870,308.815 77.320,309.200 77.403 C 309.585 77.486,311.385 77.936,313.200 78.403 C 315.015 78.870,316.815 79.320,317.200 79.403 C 317.585 79.486,319.385 79.936,321.200 80.403 C 323.015 80.870,324.815 81.320,325.200 81.403 C 325.585 81.486,327.385 81.936,329.200 82.403 C 331.015 82.870,332.815 83.320,333.200 83.403 C 333.585 83.486,335.385 83.936,337.200 84.403 C 339.015 84.870,340.815 85.320,341.200 85.403 C 341.585 85.486,343.385 85.936,345.200 86.403 C 347.015 86.870,348.815 87.320,349.200 87.403 C 349.585 87.486,351.385 87.936,353.200 88.403 C 355.015 88.870,356.815 89.320,357.200 89.403 C 357.585 89.486,359.385 89.936,361.200 90.403 C 363.015 90.870,364.815 91.320,365.200 91.403 C 365.585 91.486,367.385 91.936,369.200 92.403 C 371.015 92.870,372.815 93.320,373.200 93.403 C 373.585 93.486,375.385 93.936,377.200 94.403 C 379.015 94.870,380.815 95.320,381.200 95.403 C 381.585 95.486,383.385 95.936,385.200 96.403 C 387.015 96.870,388.815 97.320,389.200 97.401 C 389.805 97.529,395.620 98.979,398.155 99.634 C 398.975 99.846,399.490 100.200,398.978 100.200 C 398.844 100.200,398.781 100.248,398.839 100.306 C 398.897 100.364,399.194 100.316,399.500 100.200 C 400.276 99.905,400.187 99.864,397.074 99.104 C 390.653 97.536,386.857 96.592,386.200 96.399 C 385.815 96.286,384.015 95.835,382.200 95.397 C 380.385 94.959,378.585 94.509,378.200 94.397 C 377.815 94.285,376.015 93.835,374.200 93.397 C 372.385 92.959,370.585 92.509,370.200 92.397 C 369.815 92.285,368.015 91.835,366.200 91.397 C 364.385 90.959,362.585 90.509,362.200 90.397 C 361.815 90.285,360.015 89.835,358.200 89.397 C 356.385 88.959,354.585 88.509,354.200 88.397 C 353.815 88.285,352.015 87.835,350.200 87.397 C 348.385 86.959,346.585 86.509,346.200 86.397 C 345.815 86.285,344.015 85.835,342.200 85.397 C 340.385 84.959,338.585 84.509,338.200 84.397 C 337.815 84.285,336.015 83.835,334.200 83.397 C 332.385 82.959,330.585 82.509,330.200 82.397 C 329.815 82.285,328.015 81.835,326.200 81.397 C 324.385 80.959,322.585 80.509,322.200 80.397 C 321.815 80.285,320.015 79.835,318.200 79.397 C 316.385 78.959,314.585 78.509,314.200 78.397 C 313.815 78.285,312.015 77.835,310.200 77.397 C 308.385 76.959,306.585 76.509,306.200 76.397 C 305.815 76.285,304.015 75.835,302.200 75.397 C 300.385 74.959,298.585 74.509,298.200 74.397 C 297.815 74.285,296.015 73.835,294.200 73.397 C 292.385 72.959,290.585 72.509,290.200 72.397 C 289.815 72.285,288.015 71.835,286.200 71.397 C 284.385 70.959,282.585 70.509,282.200 70.397 C 281.815 70.285,280.015 69.835,278.200 69.397 C 276.385 68.959,274.585 68.509,274.200 68.397 C 273.815 68.285,272.015 67.835,270.200 67.397 C 268.385 66.959,266.585 66.509,266.200 66.397 C 265.815 66.285,264.015 65.835,262.200 65.397 C 260.385 64.959,258.585 64.509,258.200 64.397 C 257.815 64.285,256.015 63.835,254.200 63.397 C 252.385 62.959,250.585 62.509,250.200 62.397 C 249.815 62.285,248.015 61.835,246.200 61.397 C 244.385 60.959,242.585 60.509,242.200 60.397 C 241.815 60.285,240.015 59.835,238.200 59.397 C 236.385 58.959,234.585 58.509,234.200 58.397 C 233.815 58.285,232.015 57.835,230.200 57.397 C 228.385 56.959,226.585 56.509,226.200 56.397 C 225.815 56.285,224.015 55.835,222.200 55.397 C 220.385 54.959,218.585 54.509,218.200 54.397 C 217.815 54.285,216.015 53.835,214.200 53.397 C 212.385 52.959,210.585 52.509,210.200 52.397 C 209.815 52.285,208.015 51.835,206.200 51.397 C 204.385 50.959,202.585 50.509,202.200 50.397 C 201.815 50.285,200.015 49.835,198.200 49.397 C 196.385 48.959,194.585 48.509,194.200 48.397 C 193.815 48.285,192.015 47.835,190.200 47.397 C 188.385 46.959,186.585 46.509,186.200 46.397 C 185.815 46.285,184.015 45.835,182.200 45.397 C 180.385 44.959,178.585 44.509,178.200 44.397 C 177.815 44.285,176.015 43.835,174.200 43.397 C 172.385 42.959,170.585 42.509,170.200 42.397 C 169.815 42.285,168.015 41.835,166.200 41.397 C 164.385 40.959,162.585 40.509,162.200 40.397 C 161.815 40.285,160.015 39.835,158.200 39.397 C 156.385 38.959,154.585 38.509,154.200 38.397 C 153.815 38.285,152.015 37.835,150.200 37.397 C 148.385 36.959,146.585 36.509,146.200 36.397 C 145.815 36.285,144.015 35.835,142.200 35.397 C 140.385 34.959,138.585 34.509,138.200 34.397 C 137.815 34.285,136.015 33.835,134.200 33.397 C 132.385 32.959,130.585 32.509,130.200 32.397 C 129.815 32.285,128.015 31.835,126.200 31.397 C 124.385 30.959,122.585 30.509,122.200 30.397 C 121.815 30.285,120.015 29.835,118.200 29.397 C 116.385 28.959,114.585 28.509,114.200 28.397 C 113.815 28.285,112.015 27.835,110.200 27.397 C 108.385 26.959,106.585 26.509,106.200 26.397 C 105.815 26.285,104.015 25.835,102.200 25.397 C 100.385 24.959,98.585 24.509,98.200 24.397 C 97.815 24.285,96.015 23.835,94.200 23.397 C 92.385 22.959,90.585 22.509,90.200 22.397 C 89.815 22.285,88.015 21.835,86.200 21.397 C 84.385 20.959,82.585 20.509,82.200 20.397 C 81.815 20.285,80.015 19.835,78.200 19.397 C 76.385 18.959,74.585 18.509,74.200 18.397 C 73.815 18.285,72.015 17.835,70.200 17.397 C 68.385 16.959,66.585 16.509,66.200 16.397 C 65.815 16.285,64.015 15.835,62.200 15.397 C 60.385 14.959,58.585 14.509,58.200 14.397 C 57.815 14.285,56.015 13.835,54.200 13.397 C 52.385 12.959,50.585 12.509,50.200 12.397 C 49.815 12.285,48.015 11.835,46.200 11.397 C 44.385 10.959,42.585 10.509,42.200 10.397 C 41.815 10.285,40.015 9.835,38.200 9.397 C 36.385 8.959,34.585 8.509,34.200 8.397 C 33.815 8.285,32.015 7.835,30.200 7.397 C 28.385 6.959,26.585 6.509,26.200 6.397 C 25.815 6.285,24.015 5.835,22.200 5.397 C 20.385 4.959,18.585 4.509,18.200 4.397 C 17.815 4.285,16.015 3.835,14.200 3.397 C 12.385 2.959,10.585 2.509,10.200 2.397 C 9.815 2.285,8.015 1.836,6.200 1.400 C 4.385 0.964,2.630 0.523,2.300 0.420 C 1.326 0.116,0.289 -0.059,0.447 0.107 " stroke="none" fill="#616c2c" fill-rule="evenodd"></path></g></svg>