<svg width="97" height="83" viewBox="0 0 97 83" fill="none" xmlns="http://www.w3.org/2000/svg">
<path d="M87.7106 9.26913C83.6844 5.25923 78.228 3.00684 72.5392 3.00684C66.8504 3.00684 61.394 5.25923 57.3678 9.26913L48.4803 18.1568L39.6529 9.32938C35.6267 5.31947 30.1703 3.06708 24.4815 3.06708C18.7928 3.06708 13.3366 5.31947 9.31035 9.32938C7.31556 11.3159 5.73284 13.675 4.65305 16.2725C3.57327 18.87 3.01758 21.6546 3.01758 24.4666C3.01758 27.2787 3.57327 30.0633 4.65305 32.6608C5.73284 35.2582 7.31556 37.6174 9.31035 39.6039L48.5205 78.7465L78.8631 48.472L87.7509 39.6039C89.7521 37.6137 91.339 35.2486 92.4207 32.6441C93.5024 30.0397 94.0574 27.2477 94.0537 24.4284C94.05 21.6092 93.4877 18.8183 92.3991 16.2167C91.3105 13.6151 89.7171 11.2541 87.7106 9.26913V9.26913Z" stroke="#CACACA" stroke-width="5" stroke-miterlimit="10"/>
<path d="M49.5044 17.1338L33.4785 33.3446" stroke="#CACACA" stroke-width="5" stroke-miterlimit="10" stroke-linecap="round"/>
</svg>
