<svg width="24" height="21" viewBox="0 0 24 21" fill="none" xmlns="http://www.w3.org/2000/svg">
<path fill-rule="evenodd" clip-rule="evenodd" d="M11.0002 2.06807C11.0692 1.85742 11.2063 1.67342 11.3916 1.54282C11.5768 1.41221 11.8005 1.3418 12.0302 1.3418C12.2598 1.3418 12.4835 1.41221 12.6688 1.54282C12.854 1.67342 12.9911 1.85742 13.0602 2.06807L14.9202 7.56904H20.9202C21.1581 7.56039 21.3923 7.62688 21.5872 7.75834C21.7821 7.88981 21.9269 8.07902 21.9995 8.29707C22.072 8.51512 22.0684 8.75002 21.989 8.96588C21.9097 9.18173 21.7591 9.36668 21.5602 9.49246L16.6902 12.8873L18.5502 18.3979C18.6237 18.6078 18.6256 18.8348 18.5555 19.0458C18.4853 19.2568 18.3469 19.4407 18.1604 19.5707C17.9739 19.7006 17.749 19.7698 17.5187 19.7682C17.2884 19.7666 17.0647 19.6941 16.8802 19.5615L12.0002 16.1282L7.13017 19.5327C6.94567 19.6653 6.72193 19.7377 6.49161 19.7394C6.26129 19.741 6.03645 19.6718 5.84994 19.5418C5.66342 19.4118 5.525 19.2279 5.45487 19.0169C5.38475 18.806 5.38661 18.5789 5.46017 18.369L7.32017 12.8584L2.45017 9.4636C2.25125 9.33783 2.10062 9.15288 2.02129 8.93703C1.94196 8.72117 1.93829 8.48627 2.01084 8.26822C2.0834 8.05017 2.22818 7.86095 2.42308 7.72949C2.61798 7.59803 2.85228 7.53154 3.09017 7.54019H9.09017L11.0002 2.06807Z" stroke="#EBEBEB" stroke-width="2.14902" stroke-linecap="round" stroke-linejoin="round"/>
</svg>
