<svg width="57" height="79" viewBox="0 0 57 79" fill="none" xmlns="http://www.w3.org/2000/svg">
<path d="M1 26.2776V2.40843L11.4049 10.5682L19.9731 2L28.5419 10.5682L37.1101 2L45.679 10.5682L55.2676 2.40843V76.4641L44.8627 68.1001L36.2945 76.6684L27.7257 68.1001L19.1575 76.6684L10.5887 68.1001L1 76.4641V26.2776Z" stroke="black" stroke-width="2" stroke-miterlimit="10"/>
<path d="M26.624 48.976C25.616 48.896 24.648 48.664 23.72 48.28C22.808 47.88 21.992 47.296 21.272 46.528L23.168 44.224C23.632 44.704 24.168 45.104 24.776 45.424C25.4 45.744 26.016 45.96 26.624 46.072V41.392L25.376 40.912C24.96 40.72 24.544 40.496 24.128 40.24C23.712 39.984 23.336 39.672 23 39.304C22.664 38.936 22.392 38.52 22.184 38.056C21.976 37.576 21.872 37.024 21.872 36.4C21.872 35.792 21.984 35.224 22.208 34.696C22.432 34.152 22.752 33.68 23.168 33.28C23.584 32.864 24.08 32.52 24.656 32.248C25.248 31.96 25.904 31.768 26.624 31.672V29.152H28.856V31.648C29.624 31.76 30.368 31.976 31.088 32.296C31.808 32.6 32.464 33.048 33.056 33.64L31.256 35.728C30.552 35.072 29.752 34.648 28.856 34.456V39.112L30.2 39.616C30.696 39.84 31.16 40.08 31.592 40.336C32.024 40.576 32.4 40.864 32.72 41.2C33.04 41.536 33.288 41.928 33.464 42.376C33.64 42.808 33.728 43.32 33.728 43.912C33.728 45.304 33.28 46.416 32.384 47.248C31.488 48.08 30.312 48.624 28.856 48.88V51.448H26.624V48.976ZM30.68 44.152C30.68 43.672 30.52 43.312 30.2 43.072C29.88 42.832 29.432 42.584 28.856 42.328V45.976C29.096 45.912 29.328 45.84 29.552 45.76C29.776 45.664 29.968 45.552 30.128 45.424C30.304 45.28 30.44 45.112 30.536 44.92C30.632 44.712 30.68 44.456 30.68 44.152ZM24.92 36.28C24.92 36.664 25.08 37.032 25.4 37.384C25.72 37.72 26.128 37.976 26.624 38.152V34.48C26.128 34.608 25.72 34.832 25.4 35.152C25.08 35.472 24.92 35.848 24.92 36.28Z" fill="#FFB932"/>
</svg>
