<svg width="32" height="31" viewBox="0 0 32 31" fill="none" xmlns="http://www.w3.org/2000/svg">
<mask id="mask0" mask-type="alpha" maskUnits="userSpaceOnUse" x="1" y="0" width="30" height="30">
<circle cx="16" cy="15" r="15" fill="#EFEFEF"/>
</mask>
<g mask="url(#mask0)">
<mask id="mask1" mask-type="alpha" maskUnits="userSpaceOnUse" x="5" y="0" width="29" height="29">
<circle cx="19.6469" cy="14.3412" r="14.3412" fill="#EFEFEF"/>
</mask>
<g mask="url(#mask1)">
</g>
<g clip-path="url(#clip0)">
<path d="M-1.25 30.3214V0H44.2321V30.2288V30.3214H-1.25ZM44.1394 30.2288V30.1334V30.2288ZM-1.06157 30.1363H44.0437V0.185169H-1.06157V30.1363Z" fill="#221F20"/>
<path d="M44.1394 20.959H-1.1543V23.2765H44.1394V20.959Z" fill="white"/>
<path d="M44.1394 18.6387H-1.1543V20.9591H44.1394V18.6387Z" fill="#B41C31"/>
<path d="M44.1394 25.5938H-1.1543V27.9113H44.1394V25.5938Z" fill="white"/>
<path d="M44.1394 27.9111H-1.1543V30.2315H44.1394V27.9111Z" fill="#B41C31"/>
<path d="M44.1394 23.2764H-1.1543V25.5939H44.1394V23.2764Z" fill="#B41C31"/>
<path d="M44.1394 16.3213H-1.1543V18.6388H44.1394V16.3213Z" fill="white"/>
<path d="M44.1394 9.36523H-1.1543V11.6827H44.1394V9.36523Z" fill="#B41C31"/>
<path d="M44.1394 2.41016H-1.1543V4.72766H44.1394V2.41016Z" fill="white"/>
<path d="M44.1394 4.72754H-1.1543V7.04794H44.1394V4.72754Z" fill="#B41C31"/>
<path d="M44.1394 14.001H-1.1543V16.3214H44.1394V14.001Z" fill="#B41C31"/>
<path d="M44.1394 0.0957031H-1.1543V2.41032H44.1394V0.0957031Z" fill="#B41C31"/>
<path d="M44.1394 7.04785H-1.1543V9.36536H44.1394V7.04785Z" fill="white"/>
<path d="M44.1394 11.6826H-1.1543V14.0001H44.1394V11.6826Z" fill="white"/>
<path d="M16.9643 0.0957031H-1.1543V16.3414H16.9643V0.0957031Z" fill="#192F58"/>
<path d="M12.4534 0.963867L12.5751 1.34578H12.981L12.6534 1.58592L12.781 1.96783L12.4534 1.73058L12.1229 1.96783L12.2504 1.58592L11.9229 1.34578H12.3258L12.4534 0.963867Z" fill="white"/>
<path d="M12.4534 4.33691L12.5751 4.72172H12.981L12.6534 4.95897L12.781 5.34377L12.4534 5.10652L12.1229 5.34377L12.2504 4.95897L11.9229 4.72172H12.3258L12.4534 4.33691Z" fill="white"/>
<path d="M12.4534 7.71387L12.5751 8.09867H12.981L12.6534 8.33592L12.781 8.72073L12.4534 8.48348L12.1229 8.72073L12.2504 8.33592L11.9229 8.09867H12.3258L12.4534 7.71387Z" fill="white"/>
<path d="M12.4534 11.165L12.5751 11.5527H12.981L12.6534 11.79L12.781 12.1748L12.4534 11.9375L12.1229 12.1748L12.2504 11.79L11.9229 11.5527H12.3258L12.4534 11.165Z" fill="white"/>
<path d="M12.4534 14.4639L12.5751 14.8487H12.981L12.6534 15.0859L12.781 15.4707L12.4534 15.2335L12.1229 15.4707L12.2504 15.0859L11.9229 14.8487H12.3258L12.4534 14.4639Z" fill="white"/>
<path d="M9.41821 0.963867L9.54576 1.34578H9.95162L9.62114 1.58592L9.74579 1.96783L9.41821 1.73058L9.09062 1.96783L9.21528 1.58592L8.8877 1.34578H9.29355L9.41821 0.963867Z" fill="white"/>
<path d="M9.41821 4.33691L9.54576 4.72172H9.95162L9.62114 4.95897L9.74579 5.34377L9.41821 5.10652L9.09062 5.34377L9.21528 4.95897L8.8877 4.72172H9.29355L9.41821 4.33691Z" fill="white"/>
<path d="M9.41821 7.71387L9.54576 8.09867H9.95162L9.62114 8.33592L9.74579 8.72073L9.41821 8.48348L9.09062 8.72073L9.21528 8.33592L8.8877 8.09867H9.29355L9.41821 7.71387Z" fill="white"/>
<path d="M9.41821 11.165L9.54576 11.5527H9.95162L9.62114 11.79L9.74579 12.1748L9.41821 11.9375L9.09062 12.1748L9.21528 11.79L8.8877 11.5527H9.29355L9.41821 11.165Z" fill="white"/>
<path d="M9.41821 14.4639L9.54576 14.8487H9.95162L9.62114 15.0859L9.74579 15.4707L9.41821 15.2335L9.09062 15.4707L9.21528 15.0859L8.8877 14.8487H9.29355L9.41821 14.4639Z" fill="white"/>
<path d="M6.38891 0.963867L6.51357 1.34578H6.91653L6.58894 1.58592L6.7165 1.96783L6.38891 1.73058L6.05843 1.96783L6.18598 1.58592L5.8584 1.34578H6.26136L6.38891 0.963867Z" fill="white"/>
<path d="M6.38891 4.33691L6.51357 4.72172H6.91653L6.58894 4.95897L6.7165 5.34377L6.38891 5.10652L6.05843 5.34377L6.18598 4.95897L5.8584 4.72172H6.26136L6.38891 4.33691Z" fill="white"/>
<path d="M6.38891 7.71387L6.51357 8.09867H6.91653L6.58894 8.33592L6.7165 8.72073L6.38891 8.48348L6.05843 8.72073L6.18598 8.33592L5.8584 8.09867H6.26136L6.38891 7.71387Z" fill="white"/>
<path d="M6.38891 11.165L6.51357 11.5527H6.91653L6.58894 11.79L6.7165 12.1748L6.38891 11.9375L6.05843 12.1748L6.18598 11.79L5.8584 11.5527H6.26136L6.38891 11.165Z" fill="white"/>
<path d="M6.38891 14.4639L6.51357 14.8487H6.91653L6.58894 15.0859L6.7165 15.4707L6.38891 15.2335L6.05843 15.4707L6.18598 15.0859L5.8584 14.8487H6.26136L6.38891 14.4639Z" fill="white"/>
<path d="M3.35376 0.963867L3.47841 1.34578H3.88427L3.55668 1.58592L3.68424 1.96783L3.35376 1.73058L3.02617 1.96783L3.15083 1.58592L2.82324 1.34578H3.2291L3.35376 0.963867Z" fill="white"/>
<path d="M3.35376 4.33691L3.47841 4.72172H3.88427L3.55668 4.95897L3.68424 5.34377L3.35376 5.10652L3.02617 5.34377L3.15083 4.95897L2.82324 4.72172H3.2291L3.35376 4.33691Z" fill="white"/>
<path d="M3.35376 7.71387L3.47841 8.09867H3.88427L3.55668 8.33592L3.68424 8.72073L3.35376 8.48348L3.02617 8.72073L3.15083 8.33592L2.82324 8.09867H3.2291L3.35376 7.71387Z" fill="white"/>
<path d="M3.35376 11.165L3.47841 11.5527H3.88427L3.55668 11.79L3.68424 12.1748L3.35376 11.9375L3.02617 12.1748L3.15083 11.79L2.82324 11.5527H3.2291L3.35376 11.165Z" fill="white"/>
<path d="M3.35376 14.4639L3.47841 14.8487H3.88427L3.55668 15.0859L3.68424 15.4707L3.35376 15.2335L3.02617 15.4707L3.15083 15.0859L2.82324 14.8487H3.2291L3.35376 14.4639Z" fill="white"/>
<path d="M13.9983 2.64746L14.1229 3.03516H14.5288L14.2012 3.27241L14.3259 3.65721L13.9983 3.41996L13.6707 3.65721L13.7954 3.27241L13.4678 3.03516H13.8736L13.9983 2.64746Z" fill="white"/>
<path d="M13.9983 6.13379L14.1229 6.51859H14.5288L14.2012 6.75584L14.3259 7.14065L13.9983 6.9034L13.6707 7.14065L13.7954 6.75584L13.4678 6.51859H13.8736L13.9983 6.13379Z" fill="white"/>
<path d="M13.967 9.54785L14.0917 9.93266H14.4976L14.17 10.1699L14.2975 10.5547L13.967 10.3175L13.6395 10.5547L13.767 10.1699L13.4365 9.93266H13.8424L13.967 9.54785Z" fill="white"/>
<path d="M13.9377 12.9238L14.0624 13.3057H14.4683L14.1407 13.5459L14.2653 13.9307L13.9377 13.6905L13.6102 13.9307L13.7348 13.5459L13.4072 13.3057H13.8131L13.9377 12.9238Z" fill="white"/>
<path d="M10.9661 2.64746L11.0907 3.03516H11.4966L11.169 3.27241L11.2937 3.65721L10.9661 3.41996L10.6356 3.65721L10.7631 3.27241L10.4355 3.03516H10.8414L10.9661 2.64746Z" fill="white"/>
<path d="M10.9661 6.13379L11.0907 6.51859H11.4966L11.169 6.75584L11.2937 7.14065L10.9661 6.9034L10.6356 7.14065L10.7631 6.75584L10.4355 6.51859H10.8414L10.9661 6.13379Z" fill="white"/>
<path d="M10.9348 9.54785L11.0624 9.93266H11.4682L11.1406 10.1699L11.2653 10.5547L10.9348 10.3175L10.6101 10.5547L10.7348 10.1699L10.4043 9.93266H10.8102L10.9348 9.54785Z" fill="white"/>
<path d="M10.9055 12.9238L11.0302 13.3057H11.436L11.1084 13.5459L11.2331 13.9307L10.9055 13.6905L10.5779 13.9307L10.7026 13.5459L10.375 13.3057H10.7809L10.9055 12.9238Z" fill="white"/>
<path d="M7.93094 2.52832L8.05849 2.91312H8.46435L8.13676 3.15037L8.26142 3.53518L7.93094 3.29793L7.60625 3.53518L7.73091 3.15037L7.40332 2.91312H7.80628L7.93094 2.52832Z" fill="white"/>
<path d="M7.93094 6.0127L8.05849 6.3975H8.46435L8.13676 6.63475L8.26142 7.01955L7.93094 6.7823L7.60625 7.01955L7.73091 6.63475L7.40332 6.3975H7.80628L7.93094 6.0127Z" fill="white"/>
<path d="M7.90451 9.42578L8.02626 9.81059H8.43212L8.10454 10.0478L8.22919 10.4326L7.90451 10.1954L7.57402 10.4326L7.69868 10.0478L7.37109 9.81059H7.77695L7.90451 9.42578Z" fill="white"/>
<path d="M7.87329 12.8027L7.99794 13.1875H8.4038L8.07622 13.4248L8.20087 13.8096L7.87329 13.5723L7.5457 13.8096L7.67036 13.4248L7.34277 13.1875H7.74573L7.87329 12.8027Z" fill="white"/>
<path d="M4.90161 2.49707L5.02626 2.88187H5.43212L5.10454 3.11912L5.22919 3.50393L4.90161 3.26379L4.57402 3.50393L4.69868 3.11912L4.37109 2.88187H4.77695L4.90161 2.49707Z" fill="white"/>
<path d="M4.90161 5.98047L5.02626 6.36238H5.43212L5.10454 6.60252L5.22919 6.98732L4.90161 6.74718L4.57402 6.98732L4.69868 6.60252L4.37109 6.36238H4.77695L4.90161 5.98047Z" fill="white"/>
<path d="M4.87231 9.39453L4.99407 9.77934H5.39993L5.07234 10.0166L5.197 10.4014L4.87231 10.1612L4.54183 10.4014L4.66648 10.0166L4.3418 9.77934H4.74476L4.87231 9.39453Z" fill="white"/>
<path d="M4.84106 12.7676L4.96572 13.1524H5.37157L5.04399 13.3896L5.16865 13.7744L4.84106 13.5372L4.51348 13.7744L4.63813 13.3896L4.31055 13.1524H4.7164L4.84106 12.7676Z" fill="white"/>
<path d="M1.86935 2.43359L1.99401 2.8184H2.39986L2.06938 3.05854L2.19404 3.44045L1.86935 3.2032L1.53887 3.44045L1.66352 3.05854L1.33594 2.8184H1.7418L1.86935 2.43359Z" fill="white"/>
<path d="M1.86935 5.91699L1.99401 6.3018H2.39986L2.06938 6.53904L2.19404 6.92385L1.86935 6.6866L1.53887 6.92385L1.66352 6.53904L1.33594 6.3018H1.7418L1.86935 5.91699Z" fill="white"/>
<path d="M1.83715 9.33398L1.96181 9.71879H2.36767L2.04008 9.95604L2.16474 10.3408L1.83715 10.1036L1.50957 10.3408L1.63423 9.95604L1.30664 9.71879H1.7125L1.83715 9.33398Z" fill="white"/>
<path d="M1.80883 12.71L1.93349 13.0919H2.33935L2.00886 13.332L2.13642 13.7168L1.80883 13.4767L1.47835 13.7168L1.60591 13.332L1.27832 13.0919H1.68418L1.80883 12.71Z" fill="white"/>
<path d="M15.4856 0.963867L15.6073 1.34578H16.0132L15.6856 1.58592L15.8132 1.96783L15.4856 1.73058L15.1551 1.96783L15.2827 1.58592L14.9551 1.34578H15.358L15.4856 0.963867Z" fill="white"/>
<path d="M15.4856 4.33691L15.6073 4.72172H16.0132L15.6856 4.95897L15.8132 5.34377L15.4856 5.10652L15.1551 5.34377L15.2827 4.95897L14.9551 4.72172H15.358L15.4856 4.33691Z" fill="white"/>
<path d="M15.4856 7.71387L15.6073 8.09867H16.0132L15.6856 8.33592L15.8132 8.72073L15.4856 8.48348L15.1551 8.72073L15.2827 8.33592L14.9551 8.09867H15.358L15.4856 7.71387Z" fill="white"/>
<path d="M15.4856 11.165L15.6073 11.5527H16.0132L15.6856 11.79L15.8132 12.1748L15.4856 11.9375L15.1551 12.1748L15.2827 11.79L14.9551 11.5527H15.358L15.4856 11.165Z" fill="white"/>
<path d="M15.4856 14.4639L15.6073 14.8487H16.0132L15.6856 15.0859L15.8132 15.4707L15.4856 15.2335L15.1551 15.4707L15.2827 15.0859L14.9551 14.8487H15.358L15.4856 14.4639Z" fill="white"/>
</g>
</g>
<defs>
<clipPath id="clip0">
<rect width="45.4821" height="30.3214" fill="white" transform="translate(-1.25)"/>
</clipPath>
</defs>
</svg>
