<svg width="80" height="80" viewBox="0 0 80 80" fill="none" xmlns="http://www.w3.org/2000/svg">
<path d="M39.9994 13.0878C42.6602 13.0878 44.8172 10.9308 44.8172 8.26995C44.8172 5.60915 42.6602 3.45215 39.9994 3.45215C37.3386 3.45215 35.1816 5.60915 35.1816 8.26995C35.1816 10.9308 37.3386 13.0878 39.9994 13.0878Z" stroke="#010100" stroke-width="2" stroke-miterlimit="10"/>
<path d="M40 12.833V30.0364" stroke="#010100" stroke-width="2" stroke-miterlimit="10"/>
<path d="M39.9994 76.5389C42.6602 76.5389 44.8172 74.3819 44.8172 71.7211C44.8172 69.0603 42.6602 66.9033 39.9994 66.9033C37.3386 66.9033 35.1816 69.0603 35.1816 71.7211C35.1816 74.3819 37.3386 76.5389 39.9994 76.5389Z" stroke="#010100" stroke-width="2" stroke-miterlimit="10"/>
<path d="M40 67.1576V49.9629" stroke="#010100" stroke-width="2" stroke-miterlimit="10"/>
<path d="M70.7221 44.8182C73.3829 44.8182 75.5399 42.6612 75.5399 40.0004C75.5399 37.3396 73.3829 35.1826 70.7221 35.1826C68.0613 35.1826 65.9043 37.3396 65.9043 40.0004C65.9043 42.6612 68.0613 44.8182 70.7221 44.8182Z" stroke="#010100" stroke-width="2" stroke-miterlimit="10"/>
<path d="M65.5547 40H49.8516" stroke="#010100" stroke-width="2" stroke-miterlimit="10"/>
<path d="M8.26898 44.8182C10.9298 44.8182 13.0868 42.6612 13.0868 40.0004C13.0868 37.3396 10.9298 35.1826 8.26898 35.1826C5.60818 35.1826 3.45117 37.3396 3.45117 40.0004C3.45117 42.6612 5.60818 44.8182 8.26898 44.8182Z" stroke="#010100" stroke-width="2" stroke-miterlimit="10"/>
<path d="M12.834 40H30.0374" stroke="#010100" stroke-width="2" stroke-miterlimit="10"/>
<path d="M61.8061 23.0116C64.4669 23.0116 66.6239 20.8546 66.6239 18.1938C66.6239 15.533 64.4669 13.376 61.8061 13.376C59.1453 13.376 56.9883 15.533 56.9883 18.1938C56.9883 20.8546 59.1453 23.0116 61.8061 23.0116Z" stroke="#010100" stroke-width="2" stroke-miterlimit="10"/>
<path d="M58.112 21.8887L47.1484 32.8519" stroke="#010100" stroke-width="2" stroke-miterlimit="10"/>
<path d="M18.1928 66.6239C20.8536 66.6239 23.0106 64.4669 23.0106 61.8061C23.0106 59.1453 20.8536 56.9883 18.1928 56.9883C15.532 56.9883 13.375 59.1453 13.375 61.8061C13.375 64.4669 15.532 66.6239 18.1928 66.6239Z" stroke="#010100" stroke-width="2" stroke-miterlimit="10"/>
<path d="M21.8887 58.1111L32.4815 47.1484" stroke="#010100" stroke-width="2" stroke-miterlimit="10"/>
<path d="M61.8061 66.6239C64.4669 66.6239 66.6239 64.4669 66.6239 61.8061C66.6239 59.1453 64.4669 56.9883 61.8061 56.9883C59.1453 56.9883 56.9883 59.1453 56.9883 61.8061C56.9883 64.4669 59.1453 66.6239 61.8061 66.6239Z" stroke="#010100" stroke-width="2" stroke-miterlimit="10"/>
<path d="M58.1096 58.1111L47.5176 47.1484" stroke="#010100" stroke-width="2" stroke-miterlimit="10"/>
<path d="M18.1928 23.0116C20.8536 23.0116 23.0106 20.8546 23.0106 18.1938C23.0106 15.533 20.8536 13.376 18.1928 13.376C15.532 13.376 13.375 15.533 13.375 18.1938C13.375 20.8546 15.532 23.0116 18.1928 23.0116Z" stroke="#010100" stroke-width="2" stroke-miterlimit="10"/>
<path d="M21.8887 21.8887L32.4815 32.8519" stroke="#010100" stroke-width="2" stroke-miterlimit="10"/>
<path d="M39.9999 49.6355C45.3215 49.6355 49.6355 45.3215 49.6355 39.9999C49.6355 34.6783 45.3215 30.3643 39.9999 30.3643C34.6783 30.3643 30.3643 34.6783 30.3643 39.9999C30.3643 45.3215 34.6783 49.6355 39.9999 49.6355Z" stroke="#6EB0ED" stroke-width="2" stroke-miterlimit="10"/>
</svg>
