<svg width="34" height="28" viewBox="0 0 34 28" fill="none" xmlns="http://www.w3.org/2000/svg">
<g clip-path="url(#clip0)">
<path d="M29.1887 5.01791C27.9244 3.83428 26.211 3.16943 24.4247 3.16943C22.6384 3.16943 20.925 3.83428 19.6607 5.01791L16.87 7.64134L14.0981 5.03569C12.8338 3.85207 11.1204 3.18722 9.33412 3.18722C7.54779 3.18722 5.8345 3.85207 4.57023 5.03569C3.94385 5.62206 3.44686 6.31843 3.10779 7.08514C2.76873 7.85184 2.59424 8.6738 2.59424 9.50384C2.59424 10.3339 2.76873 11.1558 3.10779 11.9225C3.44686 12.6893 3.94385 13.3856 4.57023 13.972L16.8826 25.5259L26.4105 16.5896L29.2013 13.972C29.8297 13.3845 30.328 12.6864 30.6677 11.9176C31.0073 11.1489 31.1816 10.3247 31.1804 9.49256C31.1793 8.6604 31.0027 7.83658 30.6609 7.06865C30.319 6.30073 29.8187 5.60381 29.1887 5.01791V5.01791Z" stroke="#FFB932" stroke-width="3" stroke-miterlimit="10"/>
<path d="M17.192 7.33923L12.1597 12.1243" stroke="#FFB932" stroke-width="3" stroke-miterlimit="10" stroke-linecap="round"/>
</g>
<defs>
<clipPath id="clip0">
<rect width="33.6901" height="27.0986" fill="white"/>
</clipPath>
</defs>
</svg>
