<svg width="26" height="29" viewBox="0 0 26 29" fill="none" xmlns="http://www.w3.org/2000/svg">
<g clip-path="url(#clip0)">
<path d="M8.87305 11.7617H17.127" stroke="#381E1E" stroke-miterlimit="10" stroke-linecap="round"/>
<path d="M8.87305 15.752H17.127" stroke="#381E1E" stroke-miterlimit="10" stroke-linecap="round"/>
<path d="M7.29301 23.8679C7.45534 23.943 7.58188 24.0784 7.64608 24.2453C7.71028 24.4122 7.70702 24.5976 7.63684 24.7621L6.74263 27.5824V28.064L16.9226 24.556C19.2975 23.6951 21.35 22.1243 22.8019 20.0572C24.2539 17.99 25.0349 15.5266 25.039 13.0005C25.0412 11.2603 24.6747 9.53941 23.9634 7.9513C23.2521 6.36319 22.2122 4.94359 20.9123 3.7867C19.6125 2.62981 18.0821 1.76194 16.4222 1.23966C14.7623 0.71738 13.0105 0.552716 11.2823 0.756867C8.51143 1.07914 5.93051 2.3276 3.95797 4.30014C1.98544 6.27267 0.736977 8.8538 0.414705 11.6247C0.186421 14.122 0.721737 16.6295 1.94998 18.8158C3.17823 21.0021 5.04149 22.7638 7.29301 23.8679Z" stroke="#381E1E" stroke-miterlimit="10" stroke-linecap="round"/>
</g>
<defs>
<clipPath id="clip0">
<rect width="26" height="28.8201" fill="white"/>
</clipPath>
</defs>
</svg>
