<svg width="22" height="18" viewBox="0 0 22 18" fill="none" xmlns="http://www.w3.org/2000/svg">
<g opacity="0.4">
<path d="M6.75549 10.1338C8.53619 10.1338 9.97974 8.69025 9.97974 6.90955C9.97974 5.12885 8.53619 3.6853 6.75549 3.6853C4.97479 3.6853 3.53125 5.12885 3.53125 6.90955C3.53125 8.69025 4.97479 10.1338 6.75549 10.1338Z" stroke="#010100" stroke-miterlimit="10" stroke-linecap="round"/>
<path d="M1 16.7038C1.27724 15.3824 2.00054 14.1966 3.04855 13.3454C4.09657 12.4941 5.40549 12.0293 6.75566 12.0288C8.10561 12.0288 9.41441 12.4936 10.462 13.3449C11.5097 14.1963 12.2323 15.3824 12.5084 16.7038" stroke="#010100" stroke-miterlimit="10" stroke-linecap="round"/>
<path d="M15.2438 7.44849C17.0245 7.44849 18.468 6.00494 18.468 4.22424C18.468 2.44354 17.0245 1 15.2438 1C13.4631 1 12.0195 2.44354 12.0195 4.22424C12.0195 6.00494 13.4631 7.44849 15.2438 7.44849Z" stroke="#010100" stroke-miterlimit="10" stroke-linecap="round"/>
<path d="M10.0508 12.4698C10.5504 11.5258 11.2979 10.7358 12.2129 10.1849C13.128 9.63404 14.1759 9.34304 15.2439 9.34326C16.5939 9.34426 17.9026 9.80934 18.9505 10.6605C19.9984 11.5116 20.7218 12.6971 20.9996 14.0183" stroke="#010100" stroke-miterlimit="10" stroke-linecap="round"/>
</g>
</svg>
