<svg width="32" height="29" viewBox="0 0 32 29" fill="none" xmlns="http://www.w3.org/2000/svg">
<path d="M16.038 0C7.56221 0 0.693359 5.54867 0.693359 12.3927C0.693359 16.7942 3.54172 20.6544 7.81427 22.8584L6.36488 28.3813C6.30817 28.5489 6.35228 28.7293 6.47201 28.8518C6.55393 28.9356 6.66736 28.9807 6.7871 28.9807C6.88162 28.9807 6.96985 28.942 7.05177 28.8776L13.2715 24.5856C14.1727 24.7209 15.0927 24.7918 16.0317 24.7918C24.5075 24.7918 31.3763 19.2431 31.3763 12.3927C31.3889 5.54867 24.5138 0 16.038 0Z" fill="#381E1E"/>
<path d="M6.08067 10.434H4.41072C4.18386 10.434 3.98221 10.376 3.81836 10.2729C3.65452 10.1697 3.55369 10.0151 3.50958 9.8153C3.49698 9.76374 3.49068 9.6993 3.48438 9.6413C3.48438 9.38997 3.5726 9.19663 3.74905 9.0613C3.91919 8.92597 4.13975 8.84863 4.40442 8.84863H9.50879C9.74196 8.84863 9.93731 8.90663 10.1012 9.00974C10.265 9.1193 10.3721 9.26752 10.4099 9.4673C10.4162 9.51885 10.4225 9.57685 10.4225 9.63485C10.4225 9.89263 10.3343 10.086 10.1642 10.2277C9.99403 10.3631 9.77977 10.434 9.50879 10.434H7.83885V16.3177C7.83885 16.6013 7.75692 16.8268 7.59938 17.0008C7.44184 17.1748 7.22128 17.2586 6.95031 17.2586C6.72975 17.2586 6.5407 17.1942 6.38315 17.0717C6.22561 16.9429 6.13109 16.7753 6.08697 16.5626C6.07437 16.4853 6.06807 16.408 6.07437 16.3242L6.08067 10.434Z" fill="#FFE600"/>
<path d="M10.8514 9.27375C10.9208 9.06753 11.0279 8.91931 11.1728 8.83553C11.3115 8.74531 11.4942 8.7002 11.7148 8.7002H12.137C12.3638 8.7002 12.5592 8.74531 12.7167 8.84197C12.8743 8.93864 12.994 9.11908 13.0822 9.38975L15.2122 15.7118C15.2815 15.9051 15.3256 16.0726 15.3571 16.2144C15.376 16.3046 15.3823 16.382 15.3887 16.4335C15.3823 16.6655 15.3004 16.8589 15.1366 17.02C14.9727 17.1811 14.7774 17.2584 14.5505 17.2584C14.1409 17.2584 13.8762 17.0844 13.7565 16.7429L13.2965 15.3637H10.4607L10.0007 16.7429C9.89358 17.0844 9.6289 17.2584 9.20669 17.2584C8.99874 17.2584 8.82229 17.2069 8.68365 17.0909C8.54501 16.9813 8.45049 16.8266 8.41268 16.6269C8.40007 16.5689 8.39377 16.5044 8.39377 16.4335C8.38747 16.3433 8.40638 16.2338 8.44419 16.0984C8.47569 15.9695 8.51981 15.8342 8.56392 15.7118L10.8514 9.27375ZM11.9227 10.7366H11.8975L10.8577 14.0555H12.9247L11.9227 10.7366Z" fill="#FFE600"/>
<path d="M15.666 9.63425C15.666 9.35714 15.7479 9.12514 15.9055 8.95114C16.063 8.78358 16.2836 8.69336 16.5546 8.69336C16.7751 8.69336 16.9642 8.7578 17.1217 8.88025C17.2729 9.00914 17.3738 9.17669 17.4179 9.38936C17.4305 9.46669 17.4368 9.55047 17.4305 9.6278V15.518H20.386C20.6254 15.518 20.8208 15.5696 20.9846 15.6791C21.1485 15.7887 21.2493 15.9434 21.2871 16.1367C21.2997 16.1882 21.306 16.2527 21.3123 16.3107C21.3123 16.562 21.2241 16.7554 21.054 16.8971C20.8838 17.0325 20.6633 17.1034 20.3986 17.1034H16.6995C16.4222 17.1034 16.2017 17.0454 16.0378 16.9294C15.8677 16.8198 15.7542 16.6329 15.7038 16.3751C15.6849 16.2656 15.6723 16.1431 15.666 16.0078V9.63425Z" fill="#FFE600"/>
<path d="M21.4829 9.63425C21.4829 9.35714 21.5648 9.12514 21.7223 8.95114C21.8799 8.78358 22.1004 8.69336 22.3714 8.69336C22.592 8.69336 22.781 8.7578 22.9386 8.88025C23.0961 9.00914 23.1906 9.17669 23.2347 9.38936C23.2473 9.46669 23.2599 9.55047 23.2536 9.6278V12.3731L26.0264 9.11225C26.1524 8.97047 26.2595 8.8738 26.3604 8.80292C26.4612 8.73203 26.5809 8.6998 26.7259 8.6998C26.9212 8.6998 27.0977 8.7578 27.2552 8.86736C27.4128 8.97692 27.5136 9.11869 27.5514 9.30558C27.5514 9.31203 27.5577 9.3378 27.564 9.37647C27.564 9.40225 27.564 9.43447 27.5703 9.4538C27.5703 9.58269 27.5451 9.69869 27.4884 9.79536C27.4317 9.89847 27.3623 9.99514 27.2804 10.0982L25.4655 12.1282L27.6144 15.6082L27.6774 15.7114C27.8224 15.9498 27.9106 16.1238 27.9295 16.2334C27.9295 16.2398 27.9358 16.2591 27.9421 16.2914C27.9421 16.3236 27.9421 16.3365 27.9421 16.3494C27.9421 16.6716 27.8539 16.9036 27.6774 17.0454C27.501 17.1871 27.2867 17.258 27.0347 17.258C26.8519 17.258 26.707 17.2258 26.5935 17.1614C26.4801 17.084 26.3604 16.9616 26.2469 16.7682L24.2115 13.4171L23.241 14.4482L23.2536 16.3171C23.2473 16.6007 23.1717 16.8262 23.0079 17.0002C22.844 17.1742 22.6298 17.258 22.3588 17.258C22.1382 17.258 21.9492 17.1936 21.7916 17.0711C21.6341 16.9422 21.5396 16.7747 21.4955 16.562C21.4829 16.4847 21.4766 16.4074 21.4766 16.3236L21.4829 9.63425Z" fill="#FFE600"/>
</svg>
