<svg width="11" height="16" viewBox="0 0 11 16" fill="none" xmlns="http://www.w3.org/2000/svg">
<path d="M5.48161 0C7.00223 0 8.30212 0.544601 9.38127 1.6338C10.4604 2.723 11 4.04382 11 5.59624C11 6.37246 10.8099 7.26761 10.4298 8.28169C10.0496 9.29577 9.58974 10.2347 9.05017 11.0986C8.51059 11.9624 7.97101 12.7762 7.43144 13.5399C6.89186 14.3036 6.43813 14.9108 6.07023 15.3615L5.48161 16C5.33445 15.8498 5.13824 15.6244 4.89298 15.3239C4.64771 15.0235 4.21237 14.4413 3.58696 13.5775C2.96154 12.7136 2.40357 11.8748 1.91304 11.061C1.42252 10.2473 0.981048 9.32707 0.588629 8.30047C0.19621 7.27387 0 6.37246 0 5.59624C0 4.04382 0.533445 2.723 1.60033 1.6338C2.66722 0.544601 3.96098 0 5.48161 0ZM5.48161 7.58685C6.02118 7.58685 6.48718 7.3928 6.8796 7.00469C7.27202 6.61659 7.46823 6.1471 7.46823 5.59624C7.46823 5.04538 7.27202 4.5759 6.8796 4.18779C6.48718 3.79969 6.02118 3.60563 5.48161 3.60563C4.94203 3.60563 4.48216 3.79969 4.10201 4.18779C3.72185 4.5759 3.53177 5.04538 3.53177 5.59624C3.53177 6.1471 3.72185 6.61659 4.10201 7.00469C4.48216 7.3928 4.94203 7.58685 5.48161 7.58685Z" fill="#7E7E7E"/>
</svg>
