<svg width="70" height="70" viewBox="0 0 70 70" fill="none" xmlns="http://www.w3.org/2000/svg">
<circle cx="35" cy="35" r="35" fill="#F2F2F2"/>
<path d="M44.0369 28.8711H24.9631C23.3266 28.8711 22 30.2003 22 31.8399V46.0618C22 47.7015 23.3266 49.0307 24.9631 49.0307H44.0369C45.6734 49.0307 47 47.7015 47 46.0618V31.8399C47 30.2003 45.6734 28.8711 44.0369 28.8711Z" stroke="#B6B6B6" stroke-width="2" stroke-miterlimit="10"/>
<path d="M34.508 20C35.4191 20 36.3212 20.1798 37.1629 20.5291C38.0046 20.8785 38.7694 21.3905 39.4136 22.0359C40.0578 22.6814 40.5688 23.4476 40.9175 24.291C41.2661 25.1343 41.4456 26.0382 41.4456 26.951V28.8709H27.5527V26.951C27.5527 26.0367 27.7328 25.1313 28.0825 24.2869C28.4323 23.4424 28.9449 22.6753 29.591 22.0296C30.2371 21.3839 31.0039 20.8723 31.8477 20.524C32.6914 20.1758 33.5955 19.9977 34.508 20V20Z" stroke="#B6B6B6" stroke-width="2" stroke-miterlimit="10"/>
</svg>
