<svg width="72" height="81" viewBox="0 0 72 81" fill="none" xmlns="http://www.w3.org/2000/svg">
<path d="M10.2793 51.8922C10.2839 58.9809 13.0801 65.7776 18.0535 70.7885C23.0268 75.7993 29.7701 78.6142 36.8011 78.6142V78.6142C40.284 78.6165 43.7332 77.927 46.9519 76.5853C50.1705 75.2437 53.0955 73.276 55.5599 70.7946C58.0242 68.3132 59.9797 65.367 61.3147 62.1237C62.6496 58.8804 63.3379 55.4037 63.3401 51.8922V29.3053C63.3401 28.7892 63.1368 28.2942 62.7748 27.9293C62.4128 27.5643 61.9219 27.3594 61.41 27.3594H60.6776C58.4959 27.3617 56.4042 28.2365 54.8614 29.7919C53.3187 31.3472 52.451 33.4561 52.4488 35.6558V48.2088C52.0194 48.1635 51.588 48.1403 51.1563 48.1392C48.5789 48.0988 46.0574 48.8978 43.9664 50.4175C41.8754 51.9372 40.3265 54.0965 39.5498 56.5745C38.9061 58.6317 38.7934 60.8204 39.2224 62.9337" stroke="#010100" stroke-width="2" stroke-miterlimit="10"/>
<path d="M42.086 52.4551H2.11426V19.458H69.6504V52.4551H62.4659" stroke="#010100" stroke-width="2" stroke-miterlimit="10"/>
<path d="M15.3286 6.9502C16.6678 6.9502 17.9521 7.48654 18.899 8.44124C19.8459 9.39593 20.3779 10.6908 20.3779 12.0409V19.0429H10.2793V11.9975C10.2907 10.6549 10.8277 9.37117 11.7734 8.42585C12.7191 7.48052 13.9969 6.95015 15.3286 6.9502V6.9502Z" stroke="#010100" stroke-width="2" stroke-miterlimit="10"/>
<path d="M26.2292 4.24805C27.5683 4.24805 28.8526 4.78439 29.7996 5.73909C30.7465 6.69379 31.2785 7.98863 31.2785 9.33878V18.999H21.1885V9.33878C21.1885 7.99014 21.7193 6.6966 22.6643 5.74216C23.6094 4.78771 24.8915 4.25035 26.2292 4.24805V4.24805Z" stroke="#010100" stroke-width="2" stroke-miterlimit="10"/>
<path d="M46.8913 4.24805C48.2304 4.24805 49.5147 4.78439 50.4617 5.73909C51.4086 6.69379 51.9406 7.98863 51.9406 9.33878V18.999H41.8506V9.33878C41.8506 7.98863 42.3826 6.69379 43.3295 5.73909C44.2764 4.78439 45.5607 4.24805 46.8999 4.24805H46.8913Z" stroke="#010100" stroke-width="2" stroke-miterlimit="10"/>
<path d="M36.8012 2.13184C38.0776 2.13184 39.3018 2.64307 40.2044 3.55307C41.107 4.46307 41.6141 5.6973 41.6141 6.98423V18.9993H31.9883V6.98423C31.9883 5.6973 32.4954 4.46307 33.3979 3.55307C34.3005 2.64307 35.5247 2.13184 36.8012 2.13184V2.13184Z" stroke="#010100" stroke-width="2" stroke-miterlimit="10"/>
<path d="M35.9252 41.2106C38.8444 41.2106 41.2108 38.8248 41.2108 35.8817C41.2108 32.9386 38.8444 30.5527 35.9252 30.5527C33.0061 30.5527 30.6396 32.9386 30.6396 35.8817C30.6396 38.8248 33.0061 41.2106 35.9252 41.2106Z" stroke="#6EB0ED" stroke-width="2" stroke-miterlimit="10"/>
</svg>
