<svg width="168" height="57" viewBox="0 0 168 57" fill="none" xmlns="http://www.w3.org/2000/svg">
<g clip-path="url(#clip0)">
<path d="M8.32909 7.58236L7.03516 8.77344L29.9815 30.1032L31.2754 28.9121L8.32909 7.58236Z" fill="#FFB932"/>
<path d="M7.46037 19.2984C8.93246 19.2984 10.1258 18.1945 10.1258 16.8328C10.1258 15.4711 8.93246 14.3672 7.46037 14.3672C5.98828 14.3672 4.79492 15.4711 4.79492 16.8328C4.79492 18.1945 5.98828 19.2984 7.46037 19.2984Z" fill="#FFB932"/>
<path d="M18.8082 25.1124L18.784 25.1348C17.7747 25.5043 16.6948 25.6809 15.6097 25.654H15.5653C13.7546 25.5521 12.0019 25.0249 10.4727 24.1224C11.6078 22.8888 13.0646 21.9437 14.7051 21.3766C16.275 20.8688 17.9692 20.7872 19.5877 21.1413C20.8401 21.4013 22.049 21.816 23.182 22.3741C21.9482 23.5609 20.4579 24.4939 18.8082 25.1124Z" fill="#FFB932"/>
<path d="M18.8394 11.7907L18.8596 11.7682C19.2619 10.8365 19.4543 9.8386 19.425 8.83567V8.79085C19.3176 7.11601 18.749 5.4944 17.7733 4.08008C16.4399 5.13179 15.4183 6.4805 14.8049 7.99887C14.2559 9.44977 14.1676 11.0158 14.5505 12.5117C14.8337 13.6713 15.2833 14.7907 15.8873 15.8402C17.1682 14.6966 18.1753 13.317 18.8435 11.7907" fill="#FFB932"/>
<path d="M0.0168578 28.5995L0.0136719 30.2881L30.6299 30.3375L30.6331 28.649L0.0168578 28.5995Z" fill="#FFB932"/>
<path d="M4.43889 38.187C5.91097 38.187 7.10434 37.0832 7.10434 35.7215C7.10434 34.3597 5.91097 33.2559 4.43889 33.2559C2.9668 33.2559 1.77344 34.3597 1.77344 35.7215C1.77344 37.0832 2.9668 38.187 4.43889 38.187Z" fill="#FFB932"/>
<path d="M18.7798 34.1415V34.1752C18.351 35.0974 17.7229 35.9288 16.9342 36.6183L16.9019 36.6482C15.5445 37.7592 13.9027 38.5307 12.1324 38.8897C11.9927 37.2756 12.3013 35.6553 13.0289 34.1826C13.7492 32.7955 14.8845 31.6286 16.3002 30.8205C17.384 30.1796 18.5563 29.677 19.7854 29.3262C19.8176 30.971 19.4764 32.6038 18.7839 34.1191" fill="#FFB932"/>
<path d="M8.63047 24.7122V24.6823C8.20264 23.7605 7.57601 22.9292 6.78889 22.2391L6.75254 22.2092C5.39397 21.0999 3.75265 20.3286 1.98301 19.9678C1.84567 21.5829 2.15417 23.2039 2.87957 24.6786C3.60096 26.065 4.73602 27.2316 6.1508 28.0407C7.2346 28.6816 8.40694 29.1842 9.63608 29.535C9.66817 27.889 9.32698 26.2549 8.63451 24.7383" fill="#FFB932"/>
<path d="M29.9622 28.9116L7.17383 49.8008L8.45873 51.0002L31.2471 30.111L29.9622 28.9116Z" fill="#FFB932"/>
<path d="M17.185 53.0591C18.6571 53.0591 19.8504 51.9552 19.8504 50.5935C19.8504 49.2318 18.6571 48.1279 17.185 48.1279C15.7129 48.1279 14.5195 49.2318 14.5195 50.5935C14.5195 51.9552 15.7129 53.0591 17.185 53.0591Z" fill="#FFB932"/>
<path d="M26.1167 40.0995L26.1409 40.1257C26.5412 41.0579 26.7335 42.0554 26.7063 43.0582V43.1031C26.5973 44.7782 26.0273 46.3997 25.0505 47.8138C23.7194 46.761 22.6993 45.4125 22.0862 43.895C21.5371 42.4441 21.4488 40.8781 21.8317 39.3823C22.1132 38.2221 22.5629 37.1025 23.1685 36.0537C24.446 37.1978 25.4514 38.5757 26.1207 40.0995" fill="#FFB932"/>
<path d="M11.736 40.0539L11.7077 40.0352C10.7 39.6645 9.62154 39.4866 8.53744 39.5122H8.48898C6.67923 39.6125 4.92739 40.1398 3.40039 41.0438C4.53671 42.2762 5.99314 43.2211 7.63279 43.7896C9.20134 44.2973 10.8942 44.379 12.5114 44.025C13.7658 43.7652 14.9763 43.3493 16.1097 42.7885C14.8727 41.6061 13.3832 40.6748 11.736 40.0539Z" fill="#FFB932"/>
<path d="M31.2822 28.9154L29.9883 30.1064L52.9375 51.4389L54.2314 50.2478L31.2822 28.9154Z" fill="#FFB932"/>
<path d="M53.7807 44.6499C55.2528 44.6499 56.4461 43.5461 56.4461 42.1843C56.4461 40.8226 55.2528 39.7188 53.7807 39.7188C52.3086 39.7188 51.1152 40.8226 51.1152 42.1843C51.1152 43.5461 52.3086 44.6499 53.7807 44.6499Z" fill="#FFB932"/>
<path d="M42.4363 33.9242H42.4605C43.4691 33.5518 44.5492 33.3738 45.6348 33.4012H45.6792C47.4898 33.5005 49.2429 34.0265 50.7718 34.9291C49.6358 36.1626 48.1774 37.1066 46.5354 37.6711C44.9677 38.1828 43.2736 38.2645 41.6568 37.9065C40.4044 37.6464 39.1955 37.2318 38.0625 36.6737C39.2967 35.4882 40.7869 34.5564 42.4363 33.9391" fill="#FFB932"/>
<path d="M42.405 47.2314L42.3848 47.2538C41.9822 48.1867 41.7898 49.1859 41.8194 50.1901V50.2312C41.9268 51.906 42.4954 53.5276 43.4711 54.9419C44.8034 53.8901 45.8237 52.5413 46.4354 51.0231C46.9845 49.5722 47.0728 48.0062 46.6899 46.5104C46.4087 45.3518 45.9605 44.2336 45.3571 43.1855C44.0755 44.3272 43.0683 45.7057 42.4009 47.2314" fill="#FFB932"/>
<path d="M30.6301 28.6523L30.627 30.3408L61.2432 30.3902L61.2464 28.7017L30.6301 28.6523Z" fill="#FFB932"/>
<path d="M56.8022 25.7661C58.2742 25.7661 59.4676 24.6623 59.4676 23.3006C59.4676 21.9388 58.2742 20.835 56.8022 20.835C55.3301 20.835 54.1367 21.9388 54.1367 23.3006C54.1367 24.6623 55.3301 25.7661 56.8022 25.7661Z" fill="#FFB932"/>
<path d="M44.496 24.8801V24.8503C44.9263 23.9277 45.5541 23.0953 46.3417 22.4033L46.378 22.3772C47.735 21.2657 49.377 20.4941 51.1476 20.1357C51.2853 21.7497 50.9768 23.3696 50.251 24.8428C49.5307 26.2299 48.3954 27.3968 46.9798 28.205C45.8941 28.8451 44.7205 29.3477 43.4904 29.6993C43.4575 28.054 43.8002 26.4208 44.496 24.9063" fill="#FFB932"/>
<path d="M52.6131 34.3092V34.3391C53.041 35.2608 53.6676 36.0922 54.4547 36.7822L54.4911 36.8121C55.849 37.9222 57.4906 38.6937 59.2606 39.0536C59.398 37.4384 59.0895 35.8174 58.3641 34.3428C57.6427 32.9564 56.5076 31.7898 55.0928 30.9806C54.0095 30.3389 52.8371 29.8362 51.6075 29.4863C51.5754 31.1312 51.9166 32.764 52.6091 34.2793" fill="#FFB932"/>
<path d="M52.757 8.01947L29.9766 28.916L31.2619 30.115L54.0424 9.21845L52.757 8.01947Z" fill="#FFB932"/>
<path d="M45.0697 9.95169C46.5418 9.95169 47.7352 8.84781 47.7352 7.4861C47.7352 6.12439 46.5418 5.02051 45.0697 5.02051C43.5977 5.02051 42.4043 6.12439 42.4043 7.4861C42.4043 8.84781 43.5977 9.95169 45.0697 9.95169Z" fill="#FFB932"/>
<path d="M36.141 17.9801L36.1168 17.9577C35.7164 17.0254 35.5241 16.0279 35.5514 15.0251V14.9803C35.6604 13.3052 36.2303 11.6836 37.2072 10.2695C38.5383 11.3224 39.5583 12.6708 40.1715 14.1883C40.7205 15.6392 40.8088 17.2052 40.4259 18.7011C40.1444 19.8613 39.6948 20.9809 39.0891 22.0296C37.8107 20.8849 36.8051 19.5055 36.137 17.9801" fill="#FFB932"/>
<path d="M50.5222 18.0138L50.5505 18.0362C51.5583 18.4065 52.6367 18.5844 53.7207 18.5592H53.7692C55.5801 18.4584 57.3331 17.9312 58.8618 17.0276C57.7238 15.7944 56.2662 14.8484 54.6254 14.2781C53.0569 13.7702 51.3639 13.6885 49.7468 14.0427C48.4926 14.3031 47.2822 14.719 46.1484 15.2792C47.3848 16.4623 48.8745 17.3936 50.5222 18.0138Z" fill="#FFB932"/>
<path d="M31.6908 0H29.8613V29.7776H31.6908V0Z" fill="#FFB932"/>
<path d="M24.3608 8.23001C25.8329 8.23001 27.0262 7.12613 27.0262 5.76442C27.0262 4.40271 25.8329 3.29883 24.3608 3.29883C22.8887 3.29883 21.6953 4.40271 21.6953 5.76442C21.6953 7.12613 22.8887 8.23001 24.3608 8.23001Z" fill="#FFB932"/>
<path d="M25.0548 18.0889H25.0225C24.0253 17.6923 23.1254 17.1128 22.3772 16.3854L22.3489 16.3518C21.1473 15.0966 20.3131 13.5777 19.9258 11.9399C21.6706 11.8188 23.42 12.1093 25.0103 12.7842C26.5095 13.451 27.7708 14.501 28.645 15.8101C29.3411 16.8123 29.8847 17.8984 30.2605 19.0378C28.4821 19.0646 26.7174 18.7478 25.079 18.1076" fill="#FFB932"/>
<path d="M36.2746 7.76261H36.3109C37.3026 7.36463 38.1969 6.78518 38.94 6.05911L38.9683 6.02548C40.1714 4.77121 41.0058 3.25198 41.3915 1.61357C39.6467 1.48618 37.8955 1.77159 36.3029 2.44292C34.8033 3.10917 33.5419 4.15935 32.6682 5.46886C31.9753 6.47139 31.432 7.55583 31.0527 8.69281C32.8448 8.7266 34.6243 8.40961 36.2746 7.76261Z" fill="#FFB932"/>
<path d="M31.6908 29.1016H29.8613V57.0001H31.6908V29.1016Z" fill="#FFB932"/>
<path d="M38.3822 46.4839C39.8543 46.4839 41.0477 45.38 41.0477 44.0183C41.0477 42.6566 39.8543 41.5527 38.3822 41.5527C36.9102 41.5527 35.7168 42.6566 35.7168 44.0183C35.7168 45.38 36.9102 46.4839 38.3822 46.4839Z" fill="#FFB932"/>
<path d="M94.2794 37.7681V31.8843C93.6332 32.1966 92.9573 32.4529 92.2601 32.6501C91.5114 32.8658 90.7512 33.0454 89.9824 33.1881C89.2312 33.3362 88.4723 33.4484 87.7086 33.5243C87.0151 33.5928 86.3182 33.629 85.6207 33.6326H82.5595C81.3923 33.6326 80.516 33.3973 79.9385 32.9303C79.3609 32.4633 79.0742 31.7199 79.0742 30.6889V24.5847H86.6586V21.5101H79.0823V18.7606H90.4993V26.587C89.8106 26.8661 89.0917 27.0765 88.3548 27.2146C87.6314 27.3373 86.8974 27.3986 86.1619 27.3977H82.931V29.8819C82.9164 30.1332 82.9706 30.3837 83.0885 30.6104C83.1976 30.7823 83.4924 30.8682 83.9689 30.8682H85.544C86.0246 30.8682 86.6344 30.8346 87.3815 30.7673C88.1287 30.7001 88.9121 30.5955 89.7481 30.4498C90.5673 30.2852 91.3762 30.0794 92.1713 29.8334C92.9117 29.6135 93.6187 29.3072 94.2753 28.9219V17.9238H98.1039V37.783L94.2794 37.7681Z" fill="#FFB932"/>
<path d="M111.149 21.4511H113.087V17.6631H116.641V29.0795H113.087V24.2231H111.149V26.9053C110.393 27.4337 109.554 27.852 108.661 28.1456C107.831 28.436 106.952 28.5902 106.064 28.6014H104.017C102.808 28.6014 102.023 28.4245 101.662 28.0709C101.302 27.7172 101.12 27.0946 101.117 26.203V17.9844H111.149V21.4511ZM104.736 25.2915C104.736 25.538 104.784 25.6987 104.881 25.7697C105.045 25.8603 105.236 25.8995 105.426 25.8817H106.093C106.369 25.8793 106.643 25.8299 106.9 25.736C107.155 25.6445 107.393 25.5186 107.607 25.3625V20.7339H104.732L104.736 25.2915ZM121.391 38.333C121.388 38.4865 121.346 38.6372 121.267 38.7724C121.188 38.9076 121.076 39.0234 120.938 39.11C120.606 39.2807 120.228 39.3609 119.848 39.3416H108.621C107.502 39.3416 106.666 39.1698 106.105 38.8261C105.543 38.4824 105.269 37.7913 105.269 36.7602V30.3422H119.662C119.97 30.3188 120.28 30.3564 120.571 30.4524C120.862 30.5483 121.128 30.7005 121.35 30.8988C121.714 31.2724 121.867 31.8552 121.815 32.6584L121.391 38.333ZM117.877 36.5622V33.0917H109.097V35.9234C109.079 36.0978 109.117 36.2732 109.206 36.4277C109.275 36.5174 109.445 36.5622 109.711 36.5622H117.877ZM121.916 29.0907H118.325V17.6743H121.892L121.916 29.0907Z" fill="#FFB932"/>
<path d="M136.027 32.6131C135.464 32.8227 134.886 32.9986 134.298 33.1398C133.69 33.2858 133.072 33.3969 132.449 33.4723C131.897 33.543 131.342 33.5804 130.785 33.5844H128.204C126.995 33.5844 126.114 33.3665 125.559 32.9306C125.266 32.681 125.038 32.3731 124.893 32.0301C124.747 31.6871 124.688 31.318 124.719 30.9507V18.4994H128.499V23.5427H133.632V18.4994H137.412V23.666H140.841V17.9092H144.702V37.7684H140.841V26.4977H137.412V31.8846C136.992 32.189 136.525 32.4345 136.027 32.6131ZM132.194 30.6443C132.701 30.5639 133.188 30.4007 133.632 30.1624V26.3482H128.495V30.14C128.483 30.2304 128.492 30.322 128.522 30.4089C128.551 30.4959 128.6 30.5761 128.665 30.6443C128.834 30.7479 129.036 30.7953 129.238 30.7788H130.7C131.2 30.7757 131.699 30.7307 132.19 30.6443H132.194Z" fill="#FFB932"/>
<path d="M168 32.8712V35.602H146.717V32.8712H168ZM165.072 18.3877V21.1708H153.154V25.9675C153.138 26.1906 153.194 26.4131 153.316 26.6063C153.421 26.7558 153.687 26.8305 154.124 26.8305H157.354C158.612 26.8253 159.868 26.7592 161.118 26.6325C162.466 26.5005 163.803 26.2947 165.125 26.0161L165.71 28.5527C164.368 28.9796 162.973 29.2482 161.558 29.3521C159.962 29.4891 158.41 29.5588 156.902 29.5613H153.267C151.975 29.5613 150.991 29.3484 150.315 28.9225C149.639 28.4966 149.303 27.7171 149.306 26.5839V18.3877H165.072Z" fill="#FFB932"/>
</g>
<defs>
<clipPath id="clip0">
<rect width="168" height="57" fill="white"/>
</clipPath>
</defs>
</svg>
