<svg width="75" height="74" viewBox="0 0 75 74" fill="none" xmlns="http://www.w3.org/2000/svg">
<path d="M33.8408 31.9602H31.2917L30.3711 18.4648H33.062L33.5575 26.8361L36.4609 20.702H39.2933L42.2675 26.8361L42.6924 18.4648H45.4542L44.4627 31.9602H41.9136L37.8772 23.2277L33.8408 31.9602Z" fill="#FFB932"/>
<path d="M28.7854 24.0215H47.8377" stroke="#FFB932" stroke-width="2" stroke-miterlimit="10" stroke-linecap="round"/>
<path d="M1 51.1146L15.3646 43.0004H40.6945C41.2941 42.9857 41.8905 43.0915 42.4487 43.3109C43.0069 43.5303 43.5157 43.8591 43.9449 44.278C44.374 44.6969 44.715 45.197 44.9478 45.7497C45.1805 46.3025 45.3003 46.8961 45.3001 47.4959C45.3001 48.7173 44.8149 49.8888 43.9512 50.7525C43.0875 51.6162 41.916 52.1018 40.6945 52.1018H26.9878" stroke="#010100" stroke-width="2" stroke-miterlimit="10" stroke-linecap="round"/>
<path d="M59.9801 41.1336C62.6611 36.9863 64.0712 32.1456 64.0372 27.2074C64.0372 20.2568 61.2761 13.5907 56.3613 8.67588C51.4465 3.76108 44.7808 1 37.8302 1C30.8796 1 24.2135 3.76108 19.2987 8.67588C14.3839 13.5907 11.6228 20.2568 11.6228 27.2074C11.6227 32.8679 13.4709 38.3736 16.8863 42.8877" stroke="#010100" stroke-width="2" stroke-miterlimit="10" stroke-linecap="round"/>
<path d="M3.52637 72.4939L15.5883 64.7083H42.1243C43.9174 64.6865 45.6674 64.1545 47.1686 63.1736L73.1565 45.6287L72.1696 46.2865C72.9234 45.6378 73.4777 44.7893 73.7688 43.8384C74.0599 42.8874 74.0758 41.8731 73.8144 40.9136C73.5496 40.1165 73.0899 39.398 72.4771 38.8235C71.8644 38.249 71.1179 37.837 70.3054 37.6242C69.2358 37.2802 68.0854 37.2802 67.0159 37.6242L43.4401 51.2211" stroke="#010100" stroke-width="2" stroke-miterlimit="10" stroke-linecap="round"/>
</svg>
