<svg width="68" height="74" viewBox="0 0 68 74" fill="none" xmlns="http://www.w3.org/2000/svg">
<path d="M54.4884 35.8759L44.1176 56.6995C43.9999 56.9359 43.7765 57.1019 43.5162 57.1463L5.50751 63.64C4.9399 63.737 4.44923 63.239 4.55458 62.6729L11.5549 25.0565C11.6027 24.7997 11.7689 24.5805 12.0033 24.4653L32.0524 14.6064" stroke="#010100" stroke-width="2" stroke-miterlimit="10"/>
<path d="M4.3374 63.8382L24.2033 44.0332" stroke="#010100" stroke-width="2" stroke-miterlimit="10"/>
<path d="M28.3088 46.5142C31.5081 46.5142 34.1016 43.9207 34.1016 40.7214C34.1016 37.5222 31.5081 34.9287 28.3088 34.9287C25.1096 34.9287 22.5161 37.5222 22.5161 40.7214C22.5161 43.9207 25.1096 46.5142 28.3088 46.5142Z" stroke="#FFB932" stroke-width="2" stroke-miterlimit="10"/>
<path d="M36.0118 1.58631L28.7317 8.89514C28.4092 9.21895 28.4092 9.74394 28.7317 10.0678L57.525 38.9748C57.8475 39.2987 58.3704 39.2987 58.693 38.9748L65.973 31.666C66.2955 31.3422 66.2955 30.8172 65.973 30.4934L37.1798 1.58631C36.8572 1.2625 36.3343 1.2625 36.0118 1.58631Z" stroke="#010100" stroke-width="2" stroke-miterlimit="10"/>
<path d="M1 72.9727H60.1115" stroke="#010100" stroke-width="2" stroke-miterlimit="10" stroke-linecap="round"/>
</svg>
