<svg width="72" height="61" viewBox="0 0 72 61" fill="none" xmlns="http://www.w3.org/2000/svg">
<path d="M66.0291 5.83661C64.5023 4.30361 62.6879 3.08717 60.6899 2.25716C58.6919 1.42714 56.5496 1 54.386 1C52.2225 1 50.0802 1.42714 48.0822 2.25716C46.0841 3.08717 44.2697 4.30361 42.743 5.83661L35.889 12.6464L29.1228 5.88059C27.5961 4.34758 25.7817 3.13115 23.7837 2.30113C21.7856 1.47112 19.6433 1.04398 17.4798 1.04398C15.3162 1.04398 13.1739 1.47112 11.1759 2.30113C9.17788 3.13115 7.36348 4.34758 5.83675 5.88059C4.30374 7.40732 3.0873 9.22172 2.25729 11.2197C1.42728 13.2178 1 15.3602 1 17.5238C1 19.6873 1.42728 21.8292 2.25729 23.8272C3.0873 25.8253 4.30374 27.6397 5.83675 29.1664L35.9328 59.263L59.219 35.9767L66.0731 29.1664C67.6045 27.633 68.8184 25.8128 69.6453 23.8095C70.4721 21.8063 70.8957 19.6598 70.8916 17.4927C70.8875 15.3255 70.4559 13.1802 69.6215 11.1801C68.7872 9.17995 67.5663 7.3642 66.0291 5.83661V5.83661Z" stroke="#FFB932" stroke-width="2" stroke-miterlimit="10"/>
<path d="M29.1228 5.88154C27.5961 4.34853 25.7817 3.13209 23.7837 2.30208C21.7856 1.47207 19.6433 1.04492 17.4798 1.04492C15.3162 1.04492 13.1739 1.47207 11.1759 2.30208C9.17788 3.13209 7.36348 4.34853 5.83675 5.88154C4.30374 7.40827 3.0873 9.22267 2.25729 11.2207C1.42728 13.2187 1 15.3611 1 17.5247C1 19.6883 1.42728 21.8302 2.25729 23.8282C3.0873 25.8262 4.30374 27.6406 5.83675 29.1673L35.9328 59.264L59.219 35.9776L29.1228 5.88154Z" stroke="#010100" stroke-width="2" stroke-miterlimit="10"/>
</svg>
