<svg width="32" height="30" viewBox="0 0 32 30" fill="none" xmlns="http://www.w3.org/2000/svg">
<path d="M25.9496 14.3616L25.1934 11.1683L28.0505 8.395L25.1934 4.52978L21.6638 6.46239L20.6555 5.95821L18.7226 4.86573L18.2184 1H13.3446L12.8404 4.86573L10.2354 6.12644L6.70586 4.27743L3.93287 7.63898L6.45377 10.7482L5.6975 13.9415L2 15.2017L2.84039 19.9076H6.78998L8.89082 22.7649L7.63036 26.5465L12 28.5633L14.2688 25.2858H17.6304L19.8992 28.5633L24.185 26.4624L23.0084 22.6808L24.9413 20.244H28.8909L29.8992 15.5382L25.9496 14.3616ZM15.6134 19.0674C14.4914 19.0454 13.4229 18.5845 12.6373 17.7831C11.8517 16.9818 11.4115 15.9039 11.4117 14.7816C11.4332 13.674 11.8829 12.6179 12.6663 11.8345C13.4496 11.0512 14.5058 10.6015 15.6134 10.58C16.7356 10.5797 17.8133 11.0196 18.6146 11.8053C19.416 12.5909 19.8772 13.6596 19.8992 14.7816C19.8992 15.9183 19.4476 17.0086 18.6439 17.8124C17.8401 18.6161 16.75 19.0674 15.6134 19.0674V19.0674Z" stroke="#FFB932" stroke-width="2" stroke-miterlimit="10"/>
</svg>
