<svg width="68" height="100" viewBox="0 0 68 100" fill="none" xmlns="http://www.w3.org/2000/svg">
<path d="M1 83.3793L5.69011 82.0482C6.83115 81.7498 7.84346 81.0882 8.5732 80.1637C9.30294 79.2391 9.71022 78.1021 9.7333 76.9256C9.78118 65.1096 12.8572 53.5021 18.6688 43.2061C18.6688 43.2061 24.0462 31.6704 27.3617 29.4923C29.828 27.8386 33.7499 29.936 31.4048 35.0585C29.652 38.8054 28.0999 42.6427 26.7552 46.5539" stroke="#010100" stroke-width="2" stroke-miterlimit="10" stroke-linecap="round"/>
<path d="M18.9114 63.374L21.7416 50.7493C21.7416 50.7493 22.712 45.7479 26.5126 46.7159C30.3132 47.6839 29.2619 51.7982 29.0597 53.4116C28.8576 55.0249 28.1703 59.5826 27.766 62.0833C27.6129 62.9822 27.7696 63.9065 28.2107 64.7051C29.8921 67.8373 30.8976 71.2859 31.1623 74.8291C31.1623 81.4843 31.1623 89.2688 17.5367 94.7543C12.0928 96.1727 6.57131 97.2768 1 98.0615" stroke="#010100" stroke-width="2" stroke-miterlimit="10" stroke-linecap="round"/>
<path d="M67.0001 83.3793L62.2695 82.0482C61.1285 81.7498 60.1163 81.0882 59.3866 80.1637C58.6568 79.2391 58.2494 78.1021 58.2264 76.9256C58.1571 65.1124 55.0826 53.5102 49.2909 43.2061C49.2909 43.2061 43.9135 31.6704 40.5981 29.4923C38.1318 27.8386 34.2098 29.936 36.757 35.0585C38.5099 38.8054 40.0621 42.6427 41.4068 46.5539" stroke="#010100" stroke-width="2" stroke-miterlimit="10" stroke-linecap="round"/>
<path d="M48.925 63.374L46.0947 50.7493C46.0947 50.7493 45.1244 45.7479 41.3238 46.7159C37.5232 47.6839 38.5339 51.7982 38.7765 53.4116C39.0191 55.0249 39.6661 59.5826 40.0704 62.0833C40.2235 62.9822 40.0667 63.9065 39.6257 64.7051C37.9443 67.8373 36.9388 71.2859 36.6741 74.8291C36.472 81.4843 36.4719 89.2688 50.2592 94.7543C55.7175 96.1697 61.2521 97.2738 66.8363 98.0615" stroke="#010100" stroke-width="2" stroke-miterlimit="10" stroke-linecap="round"/>
<path d="M35.2062 0.666897L36.5077 3.22923C36.6455 3.50387 36.8503 3.74121 37.1039 3.92056C37.3575 4.0999 37.6522 4.21586 37.9622 4.258L40.8713 4.66942C41.1198 4.70524 41.353 4.80869 41.5443 4.96782C41.7356 5.12695 41.8772 5.33539 41.953 5.56942C42.0289 5.80345 42.0359 6.05362 41.9732 6.29134C41.9105 6.52906 41.7807 6.74486 41.5986 6.91394L39.4933 8.91509C39.2752 9.12714 39.1126 9.38748 39.0193 9.674C38.926 9.96051 38.9048 10.2647 38.9574 10.561L39.455 13.4039C39.4902 13.6397 39.459 13.8802 39.3646 14.0998C39.2702 14.3195 39.1162 14.5098 38.9193 14.6503C38.7224 14.7907 38.49 14.8761 38.2471 14.8971C38.0043 14.918 37.7602 14.8738 37.5412 14.7692L34.9383 13.4414C34.6638 13.3005 34.3584 13.2267 34.0483 13.2267C33.7383 13.2267 33.4329 13.3005 33.1584 13.4414L30.5555 14.7692C30.3371 14.8811 30.0909 14.9308 29.845 14.913C29.599 14.8953 29.3631 14.8106 29.1639 14.6685C28.9647 14.5264 28.8102 14.3327 28.7179 14.1092C28.6256 13.8857 28.5992 13.6413 28.6417 13.4039L29.1392 10.561C29.1894 10.2632 29.1652 9.95809 29.0685 9.67148C28.9719 9.38488 28.8058 9.12533 28.5842 8.91509L26.479 6.91394C26.2965 6.74364 26.1669 6.52634 26.1052 6.28723C26.0434 6.04812 26.052 5.79687 26.13 5.56234C26.208 5.32782 26.3522 5.11962 26.546 4.96166C26.7398 4.8037 26.9753 4.70233 27.2253 4.66942L30.1345 4.258C30.4411 4.21299 30.732 4.09587 30.982 3.91668C31.2321 3.73748 31.4338 3.5015 31.5699 3.22923L32.8713 0.666897C32.9879 0.464516 33.1575 0.296211 33.3626 0.178996C33.5678 0.0617807 33.8011 0 34.0388 0C34.2764 0 34.5098 0.0617807 34.715 0.178996C34.9201 0.296211 35.0897 0.464516 35.2062 0.666897Z" fill="#6EB0ED"/>
</svg>
