<svg width="70" height="70" viewBox="0 0 70 70" fill="none" xmlns="http://www.w3.org/2000/svg">
<circle cx="35" cy="35" r="35" fill="#F2F2F2"/>
<path d="M44.8057 28.9691V47.06C44.8057 47.3944 44.7407 47.7255 44.6143 48.0342C44.4879 48.3429 44.3027 48.6232 44.0693 48.8588C43.8359 49.0944 43.5593 49.2807 43.2548 49.407C42.9503 49.5333 42.6241 49.597 42.2953 49.5946H23.5109C23.182 49.597 22.8558 49.5333 22.5513 49.407C22.2468 49.2807 21.9698 49.0944 21.7364 48.8588C21.503 48.6232 21.3178 48.3429 21.1914 48.0342C21.065 47.7255 21 47.3944 21 47.06V26.4529C21 25.5371 21.358 24.6589 21.9948 24.0114C22.6316 23.3638 23.4953 23 24.3959 23H47.5693" stroke="#B6B6B6" stroke-width="2" stroke-miterlimit="10"/>
<path d="M47.5694 23C48.2916 23.0045 48.9838 23.2945 49.4996 23.8087C50.0153 24.3228 50.3142 25.0208 50.3329 25.755V27.5916C50.3329 27.9375 50.1978 28.2691 49.9573 28.5137C49.7168 28.7583 49.3906 28.8956 49.0505 28.8956H44.7878V25.755C44.8067 25.0176 45.108 24.3169 45.6277 23.8023C46.1473 23.2876 46.844 22.9998 47.5694 23V23Z" stroke="#B6B6B6" stroke-width="2" stroke-miterlimit="10"/>
<path d="M26.2568 33.8364H38.3043" stroke="#B6B6B6" stroke-width="2" stroke-miterlimit="10"/>
<path d="M26.2568 40.063H38.3043" stroke="#B6B6B6" stroke-width="2" stroke-miterlimit="10"/>
</svg>
