<svg width="17" height="16" viewBox="0 0 17 16" fill="none" xmlns="http://www.w3.org/2000/svg">
<path d="M15.4378 1.22961C14.6527 0.409755 13.5681 0 12.1833 0C11.8001 0 11.409 0.0710594 11.0104 0.213109C10.6116 0.355262 10.2406 0.547046 9.89788 0.788321C9.55468 1.02953 9.25973 1.25604 9.0123 1.46752C8.76516 1.67906 8.5302 1.90388 8.30771 2.14178C8.08512 1.90388 7.85022 1.67906 7.60305 1.46752C7.35572 1.25604 7.06064 1.02967 6.7175 0.788321C6.37443 0.546942 6.00352 0.355297 5.60485 0.213109C5.20621 0.0710941 4.81517 0 4.43196 0C3.04729 0 1.96254 0.409859 1.17754 1.22961C0.392534 2.04929 0 3.18624 0 4.64056C0 5.08349 0.0727456 5.53978 0.217944 6.00889C0.363143 6.47824 0.528607 6.87824 0.714011 7.2087C0.899382 7.53913 1.1096 7.86137 1.34449 8.1754C1.57939 8.4894 1.75106 8.70581 1.8591 8.8248C1.96725 8.94379 2.05227 9.02982 2.11407 9.08275L7.89972 15.0521C8.01101 15.1711 8.14699 15.2308 8.30768 15.2308C8.46837 15.2308 8.60444 15.1711 8.71567 15.0521L14.4921 9.10237C15.9077 7.5888 16.6154 6.10141 16.6154 4.64043C16.6154 3.186 16.2229 2.04916 15.4378 1.22961ZM13.6854 8.17044L8.30771 13.7133L2.9208 8.16043C1.76486 6.92454 1.18699 5.75102 1.18699 4.64043C1.18699 4.10505 1.25343 3.63233 1.38626 3.22257C1.51918 2.81275 1.68916 2.48708 1.89622 2.2458C2.10332 2.00446 2.35517 1.80795 2.65187 1.65579C2.94873 1.50378 3.23922 1.40129 3.52352 1.34843C3.80781 1.29564 4.11065 1.2692 4.43212 1.2692C4.7535 1.2692 5.09973 1.35339 5.4706 1.52201C5.84141 1.69056 6.18292 1.90211 6.49504 2.15658C6.80723 2.41123 7.07457 2.64917 7.29719 2.87054C7.51969 3.09212 7.70506 3.29526 7.85344 3.48038C7.96464 3.62587 8.1162 3.69859 8.30774 3.69859C8.49935 3.69859 8.65075 3.62587 8.76208 3.48038C8.91043 3.29526 9.09593 3.09202 9.31842 2.87054C9.54094 2.64917 9.80831 2.41133 10.1204 2.15658C10.4326 1.90211 10.7741 1.69056 11.1451 1.52201C11.5158 1.35343 11.8621 1.2692 12.1836 1.2692C12.505 1.2692 12.8077 1.29564 13.0921 1.34843C13.3765 1.40125 13.667 1.50378 13.9638 1.65579C14.2605 1.80792 14.5124 2.00456 14.7194 2.2458C14.9265 2.48708 15.0965 2.81275 15.2294 3.22257C15.3621 3.63233 15.4286 4.10505 15.4286 4.64043C15.4285 5.75102 14.8476 6.9278 13.6854 8.17044Z" fill="#7E7E7E"/>
</svg>
