<svg width="68" height="74" viewBox="0 0 68 74" fill="none" xmlns="http://www.w3.org/2000/svg">
<path d="M54.4889 35.8759L44.1181 56.6995C44.0004 56.9359 43.777 57.1019 43.5167 57.1463L5.508 63.64C4.94039 63.737 4.44972 63.239 4.55507 62.6729L11.5554 25.0565C11.6032 24.7997 11.7694 24.5805 12.0038 24.4653L32.0529 14.6064" stroke="#010100" stroke-width="2" stroke-miterlimit="10"/>
<path d="M4.33789 63.8382L24.2038 44.0332" stroke="#010100" stroke-width="2" stroke-miterlimit="10"/>
<path d="M28.3083 46.5144C31.5076 46.5144 34.1011 43.9209 34.1011 40.7217C34.1011 37.5224 31.5076 34.929 28.3083 34.929C25.1091 34.929 22.5156 37.5224 22.5156 40.7217C22.5156 43.9209 25.1091 46.5144 28.3083 46.5144Z" stroke="#6EB0ED" stroke-width="2" stroke-miterlimit="10"/>
<path d="M36.0125 1.58631L28.7324 8.89514C28.4099 9.21895 28.4099 9.74394 28.7324 10.0678L57.5257 38.9748C57.8482 39.2987 58.3712 39.2987 58.6937 38.9748L65.9737 31.666C66.2963 31.3422 66.2963 30.8172 65.9737 30.4934L37.1805 1.58631C36.8579 1.2625 36.335 1.2625 36.0125 1.58631Z" stroke="#010100" stroke-width="2" stroke-miterlimit="10"/>
<path d="M1 72.9729H60.1115" stroke="#010100" stroke-width="2" stroke-miterlimit="10" stroke-linecap="round"/>
</svg>
