<svg width="98" height="84" viewBox="0 0 98 84" fill="none" xmlns="http://www.w3.org/2000/svg">
<path d="M88.615 9.38071C84.5472 5.3225 79.0346 3.04297 73.2872 3.04297C67.5398 3.04297 62.0271 5.3225 57.9593 9.38071L48.9802 18.3755L40.0619 9.44168C35.9941 5.38347 30.4815 3.10394 24.734 3.10394C18.9866 3.10394 13.4742 5.38347 9.40647 9.44168C7.39112 11.4521 5.79208 13.8397 4.70117 16.4685C3.61025 19.0972 3.04883 21.9154 3.04883 24.7613C3.04883 27.6072 3.61025 30.4254 4.70117 33.0542C5.79208 35.6829 7.39112 38.0705 9.40647 40.081L49.0209 79.6952L79.6763 49.0559L88.6557 40.081C90.6775 38.0667 92.2808 35.6731 93.3736 33.0373C94.4664 30.4015 95.0272 27.5758 95.0235 24.7227C95.0197 21.8695 94.4516 19.0449 93.3518 16.412C92.252 13.779 90.6422 11.3896 88.615 9.38071V9.38071Z" stroke="#FFB932" stroke-width="5" stroke-miterlimit="10"/>
<path d="M50.0153 17.3398L33.8242 33.7459" stroke="#FFB932" stroke-width="5" stroke-miterlimit="10" stroke-linecap="round"/>
</svg>
