<svg width="40" height="32" viewBox="0 0 40 32" fill="none" xmlns="http://www.w3.org/2000/svg">
<path d="M35.6233 4.29629C34.037 2.81122 31.8873 1.97705 29.646 1.97705C27.4048 1.97705 25.255 2.81122 23.6688 4.29629L20.1673 7.58785L16.6895 4.3186C15.1032 2.83354 12.9535 1.99936 10.7122 1.99936C8.47098 1.99936 6.32135 2.83354 4.73509 4.3186C3.94918 5.0543 3.32562 5.92802 2.90021 6.89C2.47479 7.85197 2.25586 8.88325 2.25586 9.92469C2.25586 10.9661 2.47479 11.9974 2.90021 12.9594C3.32562 13.9214 3.94918 14.7951 4.73509 15.5308L20.1831 30.0273L32.1375 18.8151L35.6391 15.5308C36.4276 14.7937 37.0528 13.9178 37.479 12.9532C37.9051 11.9887 38.1238 10.9546 38.1223 9.91054C38.1209 8.86644 37.8993 7.83281 37.4704 6.86932C37.0416 5.90582 36.4138 5.03141 35.6233 4.29629V4.29629Z" stroke="#EAEAEA" stroke-width="2.75676" stroke-miterlimit="10"/>
</svg>
