<svg width="43" height="34" viewBox="0 0 43 34" fill="none" xmlns="http://www.w3.org/2000/svg">
<path d="M36.6233 6.29678C35.037 4.81171 32.8873 3.97754 30.646 3.97754C28.4048 3.97754 26.255 4.81171 24.6688 6.29678L21.1673 9.58834L17.6895 6.31909C16.1032 4.83402 13.9535 3.99985 11.7122 3.99985C9.47098 3.99985 7.32135 4.83402 5.73509 6.31909C4.94918 7.05479 4.32562 7.92851 3.90021 8.89048C3.47479 9.85246 3.25586 10.8837 3.25586 11.9252C3.25586 12.9666 3.47479 13.9979 3.90021 14.9599C4.32562 15.9218 4.94918 16.7956 5.73509 17.5313L21.1831 32.0277L33.1375 20.8156L36.6391 17.5313C37.4276 16.7942 38.0528 15.9183 38.479 14.9537C38.9051 13.9891 39.1238 12.9551 39.1223 11.911C39.1209 10.8669 38.8993 9.8333 38.4704 8.8698C38.0416 7.90631 37.4138 7.0319 36.6233 6.29678V6.29678Z" stroke="#EAEAEA" stroke-width="2.75676" stroke-miterlimit="10"/>
<path d="M21.5698 9.20898L15.2559 15.2126" stroke="#EAEAEA" stroke-width="2.75676" stroke-miterlimit="10" stroke-linecap="round"/>
</svg>
