<svg width="22" height="19" viewBox="0 0 22 19" fill="none" xmlns="http://www.w3.org/2000/svg">
<path fill-rule="evenodd" clip-rule="evenodd" d="M10.0002 1.06807C10.0692 0.857415 10.2063 0.673423 10.3916 0.542818C10.5768 0.412213 10.8005 0.341797 11.0302 0.341797C11.2598 0.341797 11.4835 0.412213 11.6688 0.542818C11.854 0.673423 11.9911 0.857415 12.0602 1.06807L13.9202 6.56903H19.9202C20.1581 6.56038 20.3924 6.62686 20.5872 6.75833C20.7822 6.88979 20.9269 7.079 20.9995 7.29705C21.072 7.51511 21.0684 7.75 20.989 7.96586C20.9097 8.18172 20.7591 8.36666 20.5602 8.49244L15.6902 11.8873L17.5502 17.3978C17.6237 17.6077 17.6256 17.8348 17.5555 18.0458C17.4853 18.2568 17.3469 18.4407 17.1604 18.5706C16.9739 18.7006 16.749 18.7698 16.5187 18.7682C16.2884 18.7665 16.0647 18.6941 15.8802 18.5615L11.0002 15.1282L6.13017 18.5326C5.94568 18.6653 5.72193 18.7377 5.49161 18.7393C5.26129 18.741 5.03645 18.6717 4.84994 18.5418C4.66342 18.4118 4.525 18.2279 4.45487 18.0169C4.38475 17.8059 4.38661 17.5789 4.46017 17.369L6.32017 11.8584L1.45017 8.46359C1.25125 8.33781 1.10062 8.15287 1.02129 7.93701C0.941956 7.72115 0.938287 7.48625 1.01084 7.2682C1.0834 7.05015 1.22818 6.86094 1.42308 6.72948C1.61798 6.59801 1.85228 6.53153 2.09017 6.54018H8.09017L10.0002 1.06807Z" fill="#FF5F5F"/>
</svg>
