<svg width="20" height="22" viewBox="0 0 20 22" fill="none" xmlns="http://www.w3.org/2000/svg">
<g clip-path="url(#clip0)" filter="url(#filter0_d)">
<path d="M9.85724 10.6341C11.1808 10.6341 12.3269 10.1594 13.2633 9.22278C14.1997 8.28635 14.6744 7.14057 14.6744 5.81687C14.6744 4.49364 14.1997 3.34771 13.2632 2.41097C12.3266 1.4747 11.1806 1 9.85724 1C8.53354 1 7.38776 1.4747 6.45132 2.41113C5.51489 3.34756 5.04004 4.49349 5.04004 5.81687C5.04004 7.14057 5.51489 8.2865 6.45148 9.22293C7.38806 10.1592 8.534 10.6341 9.85724 10.6341Z" fill="white"/>
<path d="M18.2863 16.3793C18.2593 15.9896 18.2047 15.5645 18.1242 15.1156C18.0431 14.6633 17.9385 14.2358 17.8134 13.845C17.6842 13.4411 17.5084 13.0423 17.2911 12.66C17.0656 12.2633 16.8007 11.9178 16.5034 11.6336C16.1926 11.3362 15.8121 11.0971 15.372 10.9227C14.9335 10.7492 14.4475 10.6613 13.9276 10.6613C13.7234 10.6613 13.526 10.7451 13.1447 10.9933C12.91 11.1464 12.6355 11.3234 12.3291 11.5191C12.0671 11.6861 11.7122 11.8425 11.2738 11.9841C10.8461 12.1225 10.4118 12.1927 9.98322 12.1927C9.5546 12.1927 9.12048 12.1225 8.69232 11.9841C8.25439 11.8426 7.89948 11.6862 7.63779 11.5193C7.33429 11.3253 7.05963 11.1483 6.82144 10.9932C6.44058 10.7449 6.24298 10.6611 6.03882 10.6611C5.5188 10.6611 5.03296 10.7492 4.59457 10.9228C4.15482 11.0969 3.77411 11.336 3.46298 11.6337C3.16589 11.9181 2.90085 12.2635 2.67563 12.66C2.4585 13.0423 2.28271 13.441 2.15332 13.8452C2.02835 14.2359 1.92383 14.6633 1.84265 15.1156C1.76224 15.5639 1.70761 15.9892 1.6806 16.3798C1.65405 16.7625 1.64062 17.1597 1.64062 17.5608C1.64062 18.6048 1.9725 19.45 2.62695 20.0733C3.27332 20.6884 4.12857 21.0004 5.16861 21.0004H14.7987C15.8388 21.0004 16.6937 20.6886 17.3402 20.0733C17.9948 19.4505 18.3267 18.6051 18.3267 17.5607C18.3266 17.1577 18.313 16.7602 18.2863 16.3793Z" fill="white"/>
</g>
<defs>
<filter id="filter0_d" x="-1" y="0" width="22" height="22" filterUnits="userSpaceOnUse" color-interpolation-filters="sRGB">
<feFlood flood-opacity="0" result="BackgroundImageFix"/>
<feColorMatrix in="SourceAlpha" type="matrix" values="0 0 0 0 0 0 0 0 0 0 0 0 0 0 0 0 0 0 127 0"/>
<feOffset/>
<feGaussianBlur stdDeviation="0.5"/>
<feColorMatrix type="matrix" values="0 0 0 0 0 0 0 0 0 0 0 0 0 0 0 0 0 0 0.2 0"/>
<feBlend mode="normal" in2="BackgroundImageFix" result="effect1_dropShadow"/>
<feBlend mode="normal" in="SourceGraphic" in2="effect1_dropShadow" result="shape"/>
</filter>
<clipPath id="clip0">
<rect width="20" height="20" fill="white" transform="translate(0 1)"/>
</clipPath>
</defs>
</svg>
