<svg width="70" height="70" viewBox="0 0 70 70" fill="none" xmlns="http://www.w3.org/2000/svg">
<circle cx="35" cy="35" r="35" fill="#F2F2F2"/>
<path d="M47.6237 23H23.053C21.3669 23 20 24.3846 20 26.0926V44.9074C20 46.6154 21.3669 48 23.053 48H47.6237C49.3098 48 50.6767 46.6154 50.6767 44.9074V26.0926C50.6767 24.3846 49.3098 23 47.6237 23Z" stroke="#B6B6B6" stroke-width="2" stroke-miterlimit="10"/>
<path d="M33.3092 40.3882C33.2627 40.4176 33.2091 40.4341 33.1543 40.4359C33.0995 40.4377 33.0455 40.4247 32.9972 40.3984C32.949 40.372 32.9081 40.3333 32.8794 40.286C32.8507 40.2387 32.8352 40.1844 32.8339 40.1289V30.8696C32.8352 30.8141 32.8507 30.7601 32.8794 30.7128C32.9081 30.6654 32.949 30.6265 32.9972 30.6002C33.0455 30.5739 33.0995 30.5609 33.1543 30.5627C33.2091 30.5644 33.2627 30.5809 33.3092 30.6104L40.2742 35.2215C40.3157 35.2504 40.3499 35.2891 40.3733 35.3343C40.3967 35.3794 40.409 35.4297 40.409 35.4807C40.409 35.5318 40.3967 35.5821 40.3733 35.6272C40.3499 35.6724 40.3157 35.7111 40.2742 35.74L33.3092 40.3882Z" stroke="#B6B6B6" stroke-width="2" stroke-miterlimit="10"/>
</svg>
