<svg width="245" height="84" viewBox="0 0 245 84" fill="none" xmlns="http://www.w3.org/2000/svg">
<g clip-path="url(#clip0)">
<path d="M12.1467 11.0579L10.2598 12.7949L43.7232 43.9009L45.6101 42.1639L12.1467 11.0579Z" fill="white"/>
<path d="M10.8783 28.1444C13.0251 28.1444 14.7654 26.5346 14.7654 24.5488C14.7654 22.563 13.0251 20.9531 10.8783 20.9531C8.73153 20.9531 6.99121 22.563 6.99121 24.5488C6.99121 26.5346 8.73153 28.1444 10.8783 28.1444Z" fill="white"/>
<path d="M27.4276 36.6205L27.3922 36.6532C25.9202 37.1921 24.3455 37.4497 22.763 37.4105H22.6982C20.0577 37.2618 17.5017 36.493 15.2715 35.1768C16.9269 33.3778 19.0514 31.9995 21.4438 31.1726C23.7332 30.432 26.204 30.3129 28.5642 30.8293C30.3907 31.2086 32.1537 31.8133 33.8059 32.6272C32.0067 34.358 29.8334 35.7187 27.4276 36.6205Z" fill="white"/>
<path d="M27.474 17.1938L27.5035 17.1611C28.0901 15.8024 28.3707 14.3471 28.328 12.8845V12.8191C28.1714 10.3766 27.3422 8.01177 25.9192 5.94922C23.9747 7.48297 22.4848 9.44984 21.5904 11.6641C20.7896 13.78 20.6609 16.0638 21.2193 18.2453C21.6324 19.9364 22.288 21.5689 23.1687 23.0994C25.0368 21.4317 26.5055 19.4198 27.4799 17.1938" fill="white"/>
<path d="M0.0261306 41.7094L0.0214844 44.1719L44.6702 44.244L44.6749 41.7815L0.0261306 41.7094Z" fill="white"/>
<path d="M6.47207 55.6894C8.61887 55.6894 10.3592 54.0795 10.3592 52.0937C10.3592 50.1079 8.61887 48.498 6.47207 48.498C4.32528 48.498 2.58496 50.1079 2.58496 52.0937C2.58496 54.0795 4.32528 55.6894 6.47207 55.6894Z" fill="white"/>
<path d="M27.3875 49.79V49.839C26.7621 51.1839 25.8462 52.3964 24.696 53.402L24.6489 53.4456C22.6694 55.0657 20.2751 56.1909 17.6933 56.7144C17.4896 54.3605 17.9396 51.9976 19.0008 49.8499C20.0511 47.827 21.7068 46.1253 23.7713 44.9467C25.3518 44.0121 27.0615 43.2792 28.854 42.7676C28.9009 45.1663 28.4033 47.5475 27.3934 49.7573" fill="white"/>
<path d="M12.5863 36.0381V35.9945C11.9624 34.6502 11.0486 33.4378 9.90071 32.4315L9.8477 32.3879C7.86645 30.7702 5.47286 29.6453 2.89213 29.1191C2.69184 31.4746 3.14174 33.8385 4.19962 35.989C5.25165 38.0109 6.90694 39.7122 8.97017 40.8922C10.5507 41.8268 12.2604 42.5598 14.0529 43.0714C14.0997 40.6709 13.6021 38.2879 12.5922 36.0762" fill="white"/>
<path d="M43.6959 42.1636L10.4629 72.627L12.3367 74.3761L45.5697 43.9127L43.6959 42.1636Z" fill="white"/>
<path d="M25.0609 77.3769C27.2077 77.3769 28.9481 75.767 28.9481 73.7812C28.9481 71.7954 27.2077 70.1855 25.0609 70.1855C22.9141 70.1855 21.1738 71.7954 21.1738 73.7812C21.1738 75.767 22.9141 77.3769 25.0609 77.3769Z" fill="white"/>
<path d="M38.0863 58.4802L38.1216 58.5184C38.7054 59.8779 38.9859 61.3326 38.9462 62.795V62.8604C38.7872 65.3033 37.956 67.668 36.5315 69.7303C34.5903 68.1949 33.1027 66.2284 32.2085 64.0153C31.4078 61.8994 31.279 59.6157 31.8375 57.4342C32.2479 55.7423 32.9037 54.1095 33.7869 52.5801C35.6499 54.2485 37.1162 56.258 38.0922 58.4802" fill="white"/>
<path d="M17.115 58.4126L17.0738 58.3854C15.6043 57.8448 14.0315 57.5853 12.4505 57.6227H12.3798C9.74063 57.7689 7.18587 58.5379 4.95898 59.8563C6.61611 61.6536 8.74008 63.0315 11.1312 63.8606C13.4187 64.601 15.8875 64.7201 18.2458 64.2038C20.0752 63.825 21.8405 63.2184 23.4934 62.4006C21.6895 60.6763 19.5173 59.3182 17.115 58.4126Z" fill="white"/>
<path d="M45.6184 42.1693L43.7314 43.9062L77.199 75.016L79.086 73.2791L45.6184 42.1693Z" fill="white"/>
<path d="M78.432 65.1151C80.5788 65.1151 82.3192 63.5053 82.3192 61.5195C82.3192 59.5337 80.5788 57.9238 78.432 57.9238C76.2852 57.9238 74.5449 59.5337 74.5449 61.5195C74.5449 63.5053 76.2852 65.1151 78.432 65.1151Z" fill="white"/>
<path d="M61.8872 49.4737H61.9225C63.3934 48.9306 64.9686 48.6711 66.5517 48.711H66.6165C69.257 48.8559 71.8135 49.623 74.0432 50.9392C72.3866 52.7381 70.2597 54.1147 67.8651 54.9381C65.5789 55.6842 63.1082 55.8034 60.7505 55.2813C58.9241 54.902 57.161 54.2973 55.5088 53.4835C57.3086 51.7546 59.4819 50.3958 61.8872 49.4955" fill="white"/>
<path d="M61.8407 68.8787L61.8113 68.9113C61.2242 70.2719 60.9436 71.729 60.9867 73.1934V73.2534C61.1434 75.6958 61.9726 78.0607 63.3956 80.1233C65.3385 78.5893 66.8264 76.6224 67.7185 74.4083C68.5192 72.2924 68.648 70.0087 68.0896 67.8272C67.6795 66.1377 67.0258 64.5069 66.146 62.9785C64.277 64.6434 62.8081 66.6537 61.8348 68.8787" fill="white"/>
<path d="M44.6687 41.7856L44.6641 44.248L89.3128 44.3201L89.3174 41.8576L44.6687 41.7856Z" fill="white"/>
<path d="M82.8383 37.5741C84.9851 37.5741 86.7254 35.9643 86.7254 33.9785C86.7254 31.9926 84.9851 30.3828 82.8383 30.3828C80.6915 30.3828 78.9512 31.9926 78.9512 33.9785C78.9512 35.9643 80.6915 37.5741 82.8383 37.5741Z" fill="white"/>
<path d="M64.8915 36.2822V36.2386C65.5189 34.8932 66.4345 33.6793 67.5831 32.6702L67.6361 32.6321C69.615 31.0111 72.0095 29.8858 74.5917 29.3633C74.7925 31.717 74.3426 34.0793 73.2842 36.2277C72.2338 38.2506 70.5781 39.9523 68.5136 41.1309C66.9304 42.0645 65.2189 42.7974 63.425 43.3101C63.3771 40.9107 63.8768 38.5289 64.8915 36.3203" fill="white"/>
<path d="M76.7293 50.0333V50.0769C77.3532 51.4212 78.2671 52.6335 79.4149 53.6398L79.4679 53.6834C81.4483 55.3023 83.8423 56.4274 86.4235 56.9522C86.6238 54.5968 86.1739 52.2329 85.116 50.0823C84.064 48.0605 82.4087 46.3592 80.3455 45.1792C78.7657 44.2433 77.0558 43.5103 75.2628 43C75.2159 45.3988 75.7135 47.7799 76.7234 49.9897" fill="white"/>
<path d="M76.9373 11.6958L43.7158 42.1699L45.5903 43.9184L78.8118 13.4443L76.9373 11.6958Z" fill="white"/>
<path d="M65.7279 14.5136C67.8747 14.5136 69.615 12.9037 69.615 10.9179C69.615 8.9321 67.8747 7.32227 65.7279 7.32227C63.5811 7.32227 61.8408 8.9321 61.8408 10.9179C61.8408 12.9037 63.5811 14.5136 65.7279 14.5136Z" fill="white"/>
<path d="M52.7054 26.2211L52.67 26.1884C52.0862 24.8289 51.8058 23.3742 51.8455 21.9118V21.8464C52.0044 19.4036 52.8357 17.0388 54.2602 14.9766C56.2014 16.5119 57.6889 18.4784 58.5832 20.6915C59.3839 22.8074 59.5126 25.0911 58.9542 27.2726C58.5437 28.9645 57.888 30.5973 57.0048 32.1267C55.1403 30.4573 53.6738 28.4458 52.6995 26.2211" fill="white"/>
<path d="M73.6782 26.271L73.7194 26.3037C75.1892 26.8437 76.7618 27.1032 78.3427 27.0664H78.4134C81.0543 26.9194 83.6108 26.1505 85.8402 24.8328C84.1805 23.0344 82.0548 21.6548 79.662 20.8231C77.3746 20.0824 74.9057 19.9633 72.5474 20.4798C70.7184 20.8595 68.9532 21.4661 67.2998 22.2831C69.1029 24.0084 71.2753 25.3666 73.6782 26.271Z" fill="white"/>
<path d="M46.2158 0H43.5479V43.4257H46.2158V0Z" fill="white"/>
<path d="M35.5258 12.0019C37.6726 12.0019 39.4129 10.392 39.4129 8.4062C39.4129 6.42038 37.6726 4.81055 35.5258 4.81055C33.379 4.81055 31.6387 6.42038 31.6387 8.4062C31.6387 10.392 33.379 12.0019 35.5258 12.0019Z" fill="white"/>
<path d="M36.5383 26.3775H36.4912C35.037 25.7992 33.7247 24.9541 32.6336 23.8933L32.5923 23.8442C30.84 22.0137 29.6235 19.7987 29.0586 17.4102C31.6031 17.2336 34.1543 17.6572 36.4736 18.6414C38.6598 19.6138 40.4993 21.1452 41.7742 23.0543C42.7893 24.5158 43.582 26.0997 44.13 27.7613C41.5366 27.8004 38.963 27.3383 36.5737 26.4048" fill="white"/>
<path d="M52.8994 11.321H52.9524C54.3985 10.7407 55.7027 9.89562 56.7865 8.83678L56.8277 8.78773C58.5822 6.95859 59.7991 4.74304 60.3615 2.35369C57.817 2.16791 55.2632 2.58414 52.9406 3.56315C50.7538 4.53477 48.9141 6.06628 47.64 7.97599C46.6297 9.43801 45.8372 11.0195 45.2842 12.6776C47.8976 12.7269 50.4927 12.2646 52.8994 11.321Z" fill="white"/>
<path d="M46.2158 42.4395H43.5479V83.1248H46.2158V42.4395Z" fill="white"/>
<path d="M55.976 67.7889C58.1228 67.7889 59.8631 66.1791 59.8631 64.1933C59.8631 62.2075 58.1228 60.5977 55.976 60.5977C53.8292 60.5977 52.0889 62.2075 52.0889 64.1933C52.0889 66.1791 53.8292 67.7889 55.976 67.7889Z" fill="white"/>
<path d="M137.493 55.0782V46.4977C136.55 46.9531 135.564 47.327 134.548 47.6145C133.456 47.9291 132.347 48.1909 131.226 48.399C130.131 48.6151 129.024 48.7787 127.91 48.8893C126.899 48.9892 125.883 49.042 124.865 49.0473H120.401C118.699 49.0473 117.421 48.7041 116.579 48.0231C115.737 47.3421 115.318 46.258 115.318 44.7543V35.8524H126.379V31.3687H115.33V27.359H131.98V38.7725C130.976 39.1795 129.927 39.4863 128.853 39.6877C127.798 39.8667 126.727 39.956 125.655 39.9547H120.943V43.5776C120.922 43.944 121.001 44.3094 121.173 44.6399C121.332 44.8905 121.762 45.0159 122.457 45.0159H124.753C125.454 45.0159 126.344 44.9668 127.433 44.8688C128.523 44.7707 129.665 44.6182 130.884 44.4057C132.079 44.1656 133.259 43.8656 134.418 43.5068C135.498 43.1862 136.529 42.7395 137.487 42.1775V26.1387H143.07V55.1L137.493 55.0782Z" fill="white"/>
<path d="M162.093 31.2821H164.92V25.7578H170.102V42.4068H164.92V35.3244H162.093V39.2361C160.99 40.0066 159.767 40.6166 158.465 41.0448C157.254 41.4683 155.972 41.6932 154.678 41.7095H151.692C149.929 41.7095 148.784 41.4516 148.258 40.9358C147.732 40.4201 147.467 39.5121 147.463 38.2118V26.2263H162.093V31.2821ZM152.74 36.8825C152.74 37.2421 152.811 37.4764 152.952 37.5799C153.191 37.712 153.47 37.7693 153.747 37.7433H154.719C155.122 37.7397 155.521 37.6677 155.897 37.5308C156.268 37.3974 156.615 37.2138 156.927 36.9861V30.2361H152.734L152.74 36.8825ZM177.029 55.9014C177.025 56.1253 176.963 56.3451 176.848 56.5422C176.733 56.7394 176.569 56.9082 176.369 57.0346C175.884 57.2834 175.333 57.4005 174.779 57.3723H158.406C156.774 57.3723 155.555 57.1217 154.736 56.6205C153.918 56.1193 153.517 55.1114 153.517 53.6078V44.2482H174.508C174.957 44.2141 175.409 44.2689 175.833 44.4088C176.258 44.5488 176.645 44.7707 176.97 45.0599C177.5 45.6047 177.723 46.4546 177.647 47.6259L177.029 55.9014ZM171.905 53.319V48.2579H159.101V52.3874C159.075 52.6417 159.13 52.8975 159.26 53.1229C159.36 53.2537 159.607 53.319 159.996 53.319H171.905ZM177.794 42.4231H172.558V25.7742H177.759L177.794 42.4231Z" fill="white"/>
<path d="M198.373 47.5623C197.551 47.868 196.709 48.1245 195.852 48.3305C194.964 48.5434 194.064 48.7054 193.155 48.8154C192.35 48.9184 191.54 48.973 190.728 48.9788H186.965C185.202 48.9788 183.916 48.661 183.107 48.0254C182.68 47.6614 182.347 47.2124 182.135 46.7121C181.923 46.2119 181.836 45.6737 181.882 45.138V26.9799H187.395V34.3347H194.88V26.9799H200.393V34.5145H205.393V26.1191H211.023V55.0805H205.393V38.644H200.393V46.5C199.779 46.9439 199.099 47.3019 198.373 47.5623ZM192.784 44.6913C193.522 44.5739 194.232 44.336 194.88 43.9885V38.4261H187.389V43.9558C187.372 44.0876 187.385 44.2212 187.427 44.348C187.47 44.4747 187.541 44.5917 187.636 44.6913C187.883 44.8423 188.178 44.9114 188.472 44.8874H190.604C191.334 44.8828 192.061 44.8171 192.778 44.6913H192.784Z" fill="white"/>
<path d="M245 47.9362V51.9186H213.962V47.9362H245ZM240.73 26.8145V30.8732H223.35V37.8684C223.326 38.1937 223.408 38.5181 223.585 38.8C223.739 39.0179 224.127 39.1268 224.763 39.1268H229.475C231.309 39.1193 233.141 39.0229 234.964 38.8381C236.929 38.6456 238.88 38.3455 240.807 37.9392L241.661 41.6384C239.703 42.261 237.669 42.6527 235.606 42.8042C233.278 43.004 231.014 43.1057 228.815 43.1093H223.515C221.63 43.1093 220.195 42.7988 219.21 42.1777C218.224 41.5566 217.733 40.4198 217.737 38.7673V26.8145H240.73Z" fill="white"/>
</g>
<defs>
<clipPath id="clip0">
<rect width="245" height="83.125" fill="white"/>
</clipPath>
</defs>
</svg>
