<svg width="75" height="74" viewBox="0 0 75 74" fill="none" xmlns="http://www.w3.org/2000/svg">
<path d="M33.8408 31.9602H31.2917L30.3711 18.4648H33.062L33.5575 26.8361L36.4609 20.702H39.2933L42.2675 26.8361L42.6924 18.4648H45.4542L44.4627 31.9602H41.9136L37.8772 23.2277L33.8408 31.9602Z" fill="#6EB0ED"/>
<path d="M28.7852 24.0212H47.8375" stroke="#6EB0ED" stroke-width="2" stroke-miterlimit="10" stroke-linecap="round"/>
<path d="M1 51.1141L15.3646 42.9999H40.6945C41.2941 42.9852 41.8905 43.091 42.4487 43.3104C43.0069 43.5298 43.5157 43.8586 43.9449 44.2775C44.374 44.6964 44.715 45.1965 44.9478 45.7492C45.1805 46.302 45.3003 46.8956 45.3001 47.4954C45.3001 48.7168 44.8149 49.8884 43.9512 50.7521C43.0875 51.6157 41.916 52.1013 40.6945 52.1013H26.9878" stroke="#010100" stroke-width="2" stroke-miterlimit="10" stroke-linecap="round"/>
<path d="M59.9803 41.1336C62.6613 36.9863 64.0715 32.1456 64.0374 27.2074C64.0374 20.2568 61.2764 13.5907 56.3616 8.67588C51.4468 3.76108 44.781 1 37.8304 1C30.8798 1 24.2137 3.76108 19.2989 8.67588C14.3841 13.5907 11.623 20.2568 11.623 27.2074C11.623 32.8679 13.4712 38.3736 16.8865 42.8877" stroke="#010100" stroke-width="2" stroke-miterlimit="10" stroke-linecap="round"/>
<path d="M3.52539 72.4939L15.5874 64.7083H42.1233C43.9164 64.6865 45.6664 64.1545 47.1676 63.1736L73.1555 45.6287L72.1686 46.2865C72.9224 45.6378 73.4768 44.7893 73.7679 43.8384C74.059 42.8874 74.0748 41.8731 73.8134 40.9136C73.5486 40.1165 73.0889 39.398 72.4762 38.8235C71.8634 38.249 71.1169 37.837 70.3044 37.6242C69.2348 37.2802 68.0845 37.2802 67.0149 37.6242L43.4391 51.2211" stroke="#010100" stroke-width="2" stroke-miterlimit="10" stroke-linecap="round"/>
</svg>
