<svg width="38" height="38" viewBox="0 0 38 38" fill="none" xmlns="http://www.w3.org/2000/svg">
<path d="M32.9223 6.8863C31.4963 5.26199 29.5638 4.34961 27.5489 4.34961C25.5341 4.34961 23.6015 5.26199 22.1755 6.8863L19.0277 10.4865L15.9013 6.9107C14.4753 5.2864 12.5427 4.37401 10.5279 4.37401C8.51303 4.37401 6.58056 5.2864 5.15455 6.9107C4.44804 7.71538 3.88747 8.67101 3.50503 9.72318C3.1226 10.7753 2.92578 11.9033 2.92578 13.0424C2.92578 14.1815 3.1226 15.3095 3.50503 16.3616C3.88747 17.4138 4.44804 18.3694 5.15455 19.1741L19.042 35.0297L29.7887 22.7663L32.9366 19.1741C33.6454 18.3679 34.2074 17.4099 34.5905 16.3549C34.9736 15.2999 35.1702 14.1689 35.1689 13.0269C35.1676 11.8849 34.9684 10.7544 34.5829 9.70056C34.1973 8.64673 33.633 7.69034 32.9223 6.8863Z" fill="#FFB932" stroke="#FFB932" stroke-width="2.47826" stroke-miterlimit="10"/>
<path d="M19.4129 6.03027L13.2173 13.6019" stroke="white" stroke-width="2.47826" stroke-miterlimit="10" stroke-linecap="round"/>
</svg>
