<svg width="97" height="83" viewBox="0 0 97 83" fill="none" xmlns="http://www.w3.org/2000/svg">
<path d="M87.7106 9.26937C83.6844 5.25947 78.228 3.00708 72.5392 3.00708C66.8504 3.00708 61.394 5.25947 57.3678 9.26937L48.4803 18.1571L39.6529 9.32962C35.6267 5.31972 30.1703 3.06733 24.4815 3.06733C18.7928 3.06733 13.3366 5.31972 9.31035 9.32962C7.31556 11.3161 5.73284 13.6753 4.65305 16.2728C3.57327 18.8702 3.01758 21.6548 3.01758 24.4669C3.01758 27.2789 3.57327 30.0635 4.65305 32.661C5.73284 35.2585 7.31556 37.6176 9.31035 39.6041L48.5205 78.7468L78.8631 48.4723L87.7509 39.6041C89.7521 37.6139 91.339 35.2488 92.4207 32.6444C93.5024 30.0399 94.0574 27.2479 94.0537 24.4287C94.05 21.6095 93.4877 18.8185 92.3991 16.2169C91.3105 13.6153 89.7171 11.2543 87.7106 9.26937V9.26937Z" stroke="#CACACA" stroke-width="5" stroke-miterlimit="10"/>
</svg>
