<svg width="40" height="32" viewBox="0 0 40 32" fill="none" xmlns="http://www.w3.org/2000/svg">
<path d="M35.3537 4.29629C33.7675 2.81122 31.6178 1.97705 29.3765 1.97705C27.1352 1.97705 24.9855 2.81122 23.3993 4.29629L19.8978 7.58785L16.42 4.3186C14.8337 2.83354 12.684 1.99936 10.4427 1.99936C8.20144 1.99936 6.05181 2.83354 4.46556 4.3186C3.67965 5.0543 3.05609 5.92802 2.63067 6.89C2.20526 7.85197 1.98633 8.88325 1.98633 9.92469C1.98633 10.9661 2.20526 11.9974 2.63067 12.9594C3.05609 13.9214 3.67965 14.7951 4.46556 15.5308L19.9136 30.0273L31.868 18.8151L35.3696 15.5308C36.158 14.7937 36.7833 13.9178 37.2094 12.9532C37.6356 11.9887 37.8543 10.9546 37.8528 9.91054C37.8513 8.86644 37.6298 7.83281 37.2009 6.86932C36.772 5.90582 36.1443 5.03141 35.3537 4.29629V4.29629Z" stroke="#EAEAEA" stroke-width="2.75676" stroke-miterlimit="10"/>
</svg>
