<svg width="72" height="81" viewBox="0 0 72 81" fill="none" xmlns="http://www.w3.org/2000/svg">
<path d="M10.2793 51.8919C10.2839 58.9807 13.0801 65.7774 18.0535 70.7882C23.0268 75.7991 29.7701 78.614 36.8011 78.614V78.614C40.284 78.6162 43.7332 77.9268 46.9519 76.5851C50.1705 75.2434 53.0955 73.2757 55.5599 70.7944C58.0242 68.313 59.9797 65.3667 61.3147 62.1234C62.6496 58.8801 63.3379 55.4034 63.3401 51.8919V29.3051C63.3401 28.789 63.1368 28.294 62.7748 27.929C62.4128 27.5641 61.9219 27.3591 61.41 27.3591H60.6776C58.4959 27.3614 56.4042 28.2362 54.8614 29.7916C53.3187 31.347 52.451 33.4559 52.4488 35.6555V48.2086C52.0194 48.1633 51.588 48.14 51.1563 48.139C48.5789 48.0986 46.0574 48.8976 43.9664 50.4173C41.8754 51.937 40.3265 54.0963 39.5498 56.5743C38.9061 58.6314 38.7934 60.8201 39.2224 62.9334" stroke="#010100" stroke-width="2" stroke-miterlimit="10"/>
<path d="M42.085 52.4548H2.11328V19.4578H69.6494V52.4548H62.4649" stroke="#010100" stroke-width="2" stroke-miterlimit="10"/>
<path d="M15.3286 6.9502C16.6678 6.9502 17.9521 7.48654 18.899 8.44124C19.8459 9.39593 20.3779 10.6908 20.3779 12.0409V19.0429H10.2793V11.9975C10.2907 10.6549 10.8277 9.37117 11.7734 8.42585C12.7191 7.48052 13.9969 6.95015 15.3286 6.9502V6.9502Z" stroke="#010100" stroke-width="2" stroke-miterlimit="10"/>
<path d="M26.2282 4.24829C27.5673 4.24829 28.8517 4.78463 29.7986 5.73933C30.7455 6.69403 31.2775 7.98888 31.2775 9.33903V18.9993H21.1875V9.33903C21.1875 7.99038 21.7183 6.69685 22.6634 5.7424C23.6084 4.78795 24.8905 4.25059 26.2282 4.24829V4.24829Z" stroke="#010100" stroke-width="2" stroke-miterlimit="10"/>
<path d="M46.8903 4.24829C48.2295 4.24829 49.5138 4.78463 50.4607 5.73933C51.4076 6.69403 51.9396 7.98888 51.9396 9.33903V18.9993H41.8496V9.33903C41.8496 7.98888 42.3816 6.69403 43.3285 5.73933C44.2754 4.78463 45.5598 4.24829 46.8989 4.24829H46.8903Z" stroke="#010100" stroke-width="2" stroke-miterlimit="10"/>
<path d="M36.8012 2.13184C38.0776 2.13184 39.3018 2.64307 40.2044 3.55307C41.107 4.46307 41.6141 5.6973 41.6141 6.98423V18.9993H31.9883V6.98423C31.9883 5.6973 32.4954 4.46307 33.3979 3.55307C34.3005 2.64307 35.5247 2.13184 36.8012 2.13184V2.13184Z" stroke="#010100" stroke-width="2" stroke-miterlimit="10"/>
<path d="M35.9262 41.2111C38.8454 41.2111 41.2118 38.8253 41.2118 35.8822C41.2118 32.9391 38.8454 30.5532 35.9262 30.5532C33.0071 30.5532 30.6406 32.9391 30.6406 35.8822C30.6406 38.8253 33.0071 41.2111 35.9262 41.2111Z" stroke="#6EB0ED" stroke-width="2" stroke-miterlimit="10"/>
</svg>
