<svg width="98" height="84" viewBox="0 0 98 84" fill="none" xmlns="http://www.w3.org/2000/svg">
<path d="M88.615 9.3812C84.5472 5.32298 79.0346 3.04346 73.2872 3.04346C67.5398 3.04346 62.0271 5.32298 57.9593 9.3812L48.9802 18.376L40.0619 9.44217C35.9941 5.38396 30.4815 3.10443 24.734 3.10443C18.9866 3.10443 13.4742 5.38396 9.40647 9.44217C7.39112 11.4526 5.79208 13.8402 4.70117 16.469C3.61025 19.0977 3.04883 21.9159 3.04883 24.7618C3.04883 27.6077 3.61025 30.4259 4.70117 33.0547C5.79208 35.6834 7.39112 38.071 9.40647 40.0814L49.0209 79.6957L79.6763 49.0564L88.6557 40.0814C90.6775 38.0672 92.2808 35.6736 93.3736 33.0378C94.4664 30.402 95.0272 27.5763 95.0235 24.7231C95.0197 21.87 94.4516 19.0454 93.3518 16.4124C92.252 13.7795 90.6422 11.3901 88.615 9.3812V9.3812Z" stroke="#FFB932" stroke-width="5" stroke-miterlimit="10"/>
</svg>
